<svg id="Layer_1" data-name="Layer 1" xmlns="http://www.w3.org/2000/svg" xmlns:xlink="http://www.w3.org/1999/xlink" viewBox="0 0 791 794"><defs><style>.cls-1,.cls-11,.cls-13,.cls-15,.cls-17,.cls-5,.cls-7{fill:none;}.cls-2{fill:#f7f7f7;}.cls-16,.cls-3{fill:#c4c4c4;}.cls-14,.cls-15,.cls-16,.cls-3{isolation:isolate;}.cls-3{opacity:0.3;}.cls-4{fill:#fff;}.cls-11,.cls-13,.cls-15,.cls-17,.cls-5,.cls-7{stroke:#000;}.cls-13,.cls-5{stroke-opacity:0.25;}.cls-6{clip-path:url(#clip-path);}.cls-11,.cls-7{stroke-linecap:square;stroke-linejoin:bevel;}.cls-7{stroke-width:2.17px;}.cls-8{clip-path:url(#clip-path-2);}.cls-15,.cls-16,.cls-9{opacity:0.2;}.cls-10{clip-path:url(#clip-path-3);}.cls-11{stroke-width:1.81px;}.cls-12{clip-path:url(#clip-path-4);}.cls-13{stroke-width:0.69px;}.cls-14{opacity:0.25;}.cls-17{stroke-linecap:round;stroke-width:2px;}</style><clipPath id="clip-path"><rect class="cls-1" x="36" y="370.04" width="13" height="23.83"/></clipPath><clipPath id="clip-path-2"><rect class="cls-1" x="743" y="370.04" width="13" height="23.83"/></clipPath><clipPath id="clip-path-3"><rect class="cls-1" x="97" y="544" width="7.64" height="14"/></clipPath><clipPath id="clip-path-4"><rect class="cls-1" x="687.8" y="544" width="7.64" height="14"/></clipPath></defs><rect class="cls-2" width="791" height="794"/><path class="cls-3" d="M144.5,76h502a9.5,9.5,0,0,1,9.5,9.5h0a9.5,9.5,0,0,1-9.5,9.5h-502a9.5,9.5,0,0,1-9.5-9.5h0A9.5,9.5,0,0,1,144.5,76Z"/><path class="cls-3" d="M144.5,115h502a9.5,9.5,0,0,1,9.5,9.5h0a9.5,9.5,0,0,1-9.5,9.5h-502a9.5,9.5,0,0,1-9.5-9.5h0A9.5,9.5,0,0,1,144.5,115Z"/><path class="cls-3" d="M144.5,154h502a9.5,9.5,0,0,1,9.5,9.5h0a9.5,9.5,0,0,1-9.5,9.5h-502a9.5,9.5,0,0,1-9.5-9.5h0A9.5,9.5,0,0,1,144.5,154Z"/><path class="cls-3" d="M144.5,193h502a9.5,9.5,0,0,1,9.5,9.5h0a9.5,9.5,0,0,1-9.5,9.5h-502a9.5,9.5,0,0,1-9.5-9.5h0A9.5,9.5,0,0,1,144.5,193Z"/><path class="cls-3" d="M144.5,232h502a9.5,9.5,0,0,1,9.5,9.5h0a9.5,9.5,0,0,1-9.5,9.5h-502a9.5,9.5,0,0,1-9.5-9.5h0A9.5,9.5,0,0,1,144.5,232Z"/><path class="cls-3" d="M144.5,271h502a9.5,9.5,0,0,1,9.5,9.5h0a9.5,9.5,0,0,1-9.5,9.5h-502a9.5,9.5,0,0,1-9.5-9.5h0A9.5,9.5,0,0,1,144.5,271Z"/><path class="cls-3" d="M144.5,310h502a9.5,9.5,0,0,1,9.5,9.5h0a9.5,9.5,0,0,1-9.5,9.5h-502a9.5,9.5,0,0,1-9.5-9.5h0A9.5,9.5,0,0,1,144.5,310Z"/><path class="cls-3" d="M144.5,349h502a9.5,9.5,0,0,1,9.5,9.5h0a9.5,9.5,0,0,1-9.5,9.5h-502a9.5,9.5,0,0,1-9.5-9.5h0A9.5,9.5,0,0,1,144.5,349Z"/><path class="cls-3" d="M144.5,388h502a9.5,9.5,0,0,1,9.5,9.5h0a9.5,9.5,0,0,1-9.5,9.5h-502a9.5,9.5,0,0,1-9.5-9.5h0A9.5,9.5,0,0,1,144.5,388Z"/><path class="cls-3" d="M144.5,427h502a9.5,9.5,0,0,1,9.5,9.5h0a9.5,9.5,0,0,1-9.5,9.5h-502a9.5,9.5,0,0,1-9.5-9.5h0A9.5,9.5,0,0,1,144.5,427Z"/><path class="cls-3" d="M144.5,466h502a9.5,9.5,0,0,1,9.5,9.5h0a9.5,9.5,0,0,1-9.5,9.5h-502a9.5,9.5,0,0,1-9.5-9.5h0A9.5,9.5,0,0,1,144.5,466Z"/><path class="cls-3" d="M144.5,505h502a9.5,9.5,0,0,1,9.5,9.5h0a9.5,9.5,0,0,1-9.5,9.5h-502a9.5,9.5,0,0,1-9.5-9.5h0A9.5,9.5,0,0,1,144.5,505Z"/><path class="cls-3" d="M144.5,544h502a9.5,9.5,0,0,1,9.5,9.5h0a9.5,9.5,0,0,1-9.5,9.5h-502a9.5,9.5,0,0,1-9.5-9.5h0A9.5,9.5,0,0,1,144.5,544Z"/><path class="cls-3" d="M144.5,583h502a9.5,9.5,0,0,1,9.5,9.5h0a9.5,9.5,0,0,1-9.5,9.5h-502a9.5,9.5,0,0,1-9.5-9.5h0A9.5,9.5,0,0,1,144.5,583Z"/><path class="cls-3" d="M144.5,622h502a9.5,9.5,0,0,1,9.5,9.5h0a9.5,9.5,0,0,1-9.5,9.5h-502a9.5,9.5,0,0,1-9.5-9.5h0A9.5,9.5,0,0,1,144.5,622Z"/><path class="cls-3" d="M144.5,661h502a9.5,9.5,0,0,1,9.5,9.5h0a9.5,9.5,0,0,1-9.5,9.5h-502a9.5,9.5,0,0,1-9.5-9.5h0A9.5,9.5,0,0,1,144.5,661Z"/><path class="cls-3" d="M144.5,700h313a9.5,9.5,0,0,1,9.5,9.5h0a9.5,9.5,0,0,1-9.5,9.5h-313a9.5,9.5,0,0,1-9.5-9.5h0A9.5,9.5,0,0,1,144.5,700Z"/><rect class="cls-4" x="1" y="188" width="789" height="418"/><path class="cls-3" d="M439.5,262h227a4.49,4.49,0,0,1,4.5,4.5h0a4.49,4.49,0,0,1-4.5,4.5h-227a4.49,4.49,0,0,1-4.5-4.5h0A4.49,4.49,0,0,1,439.5,262Z"/><path class="cls-3" d="M439.5,280.79h227a4.5,4.5,0,0,1,4.5,4.5h0a4.49,4.49,0,0,1-4.5,4.5h-227a4.49,4.49,0,0,1-4.5-4.5h0A4.5,4.5,0,0,1,439.5,280.79Z"/><path class="cls-3" d="M440,299.59H666a5,5,0,0,1,5,5h0a5,5,0,0,1-5,5H440a5,5,0,0,1-5-5h0A5,5,0,0,1,440,299.59Z"/><path class="cls-3" d="M440,319.38H666a5,5,0,0,1,5,5h0a5,5,0,0,1-5,5H440a5,5,0,0,1-5-5h0A5,5,0,0,1,440,319.38Z"/><path class="cls-3" d="M440,339.18H666a5,5,0,0,1,5,5h0a5,5,0,0,1-5,5H440a5,5,0,0,1-5-5h0A5,5,0,0,1,440,339.18Z"/><path class="cls-3" d="M440,359H666a5,5,0,0,1,5,5h0a5,5,0,0,1-5,5H440a5,5,0,0,1-5-5h0A5,5,0,0,1,440,359Z"/><path class="cls-3" d="M439.5,378.77h227a4.49,4.49,0,0,1,4.5,4.5h0a4.5,4.5,0,0,1-4.5,4.5h-227a4.5,4.5,0,0,1-4.5-4.5h0A4.49,4.49,0,0,1,439.5,378.77Z"/><path class="cls-3" d="M439.5,397.56h227a4.5,4.5,0,0,1,4.5,4.5h0a4.49,4.49,0,0,1-4.5,4.5h-227a4.49,4.49,0,0,1-4.5-4.5h0A4.5,4.5,0,0,1,439.5,397.56Z"/><path class="cls-3" d="M439.5,416.36h227a4.49,4.49,0,0,1,4.5,4.5h0a4.5,4.5,0,0,1-4.5,4.5h-227a4.5,4.5,0,0,1-4.5-4.5h0A4.49,4.49,0,0,1,439.5,416.36Z"/><path class="cls-3" d="M439.65,435.15H592.94a4.65,4.65,0,0,1,4.65,4.65h0a4.66,4.66,0,0,1-4.65,4.66H439.65A4.66,4.66,0,0,1,435,439.8h0A4.65,4.65,0,0,1,439.65,435.15Z"/><path class="cls-5" d="M92.5,238.5h303v229H92.5Z"/><path d="M260,339H228v28l18.58-18.59a2,2,0,0,1,1.42-.58,2,2,0,0,1,1.41.58L260,359Zm-36-2a2,2,0,0,1,2-2h36a2,2,0,0,1,2,2v32a2,2,0,0,1-2,2H226a2,2,0,0,1-2-2Zm12,14a4,4,0,1,1,2.83-1.17A4,4,0,0,1,236,351Z"/><g class="cls-6"><path class="cls-7" d="M46.84,372.2l-9.75,9.63,9.75,9.63"/></g><g class="cls-8"><path class="cls-7" d="M745.16,391.7l9.75-9.63-9.75-9.63"/></g><g class="cls-9"><g class="cls-10"><path class="cls-11" d="M103.36,545.27l-5.72,5.66,5.72,5.66"/></g><g class="cls-12"><path class="cls-11" d="M689.08,556.73l5.72-5.66-5.72-5.66"/></g></g><path class="cls-13" d="M123.35,525.89h81.8v52h-81.8Z"/><path class="cls-14" d="M170.14,547H159.05v9.71l6.44-6.45a.7.7,0,0,1,.49-.2.68.68,0,0,1,.49.2l3.67,3.68Zm-12.48-.69a.69.69,0,0,1,.21-.49.66.66,0,0,1,.48-.2h12.49a.69.69,0,0,1,.69.69v11.1a.67.67,0,0,1-.2.48.75.75,0,0,1-.49.21H158.35a.67.67,0,0,1-.48-.21.68.68,0,0,1-.21-.48Zm4.16,4.85a1.37,1.37,0,0,1-1.38-1.38,1.38,1.38,0,0,1,.4-1,1.4,1.4,0,0,1,1-.41,1.4,1.4,0,0,1,1.39,1.39,1.4,1.4,0,0,1-.41,1A1.38,1.38,0,0,1,161.82,551.19Z"/><path class="cls-13" d="M216.24,525.89h81.81v52H216.24Z"/><path class="cls-14" d="M263,547H252v9.71l6.44-6.45a.7.7,0,0,1,.49-.2.68.68,0,0,1,.49.2L263,554Zm-12.48-.69a.72.72,0,0,1,.2-.49.7.7,0,0,1,.49-.2h12.49a.69.69,0,0,1,.69.69v11.1a.72.72,0,0,1-.2.48.75.75,0,0,1-.49.21H251.25a.71.71,0,0,1-.49-.21.67.67,0,0,1-.2-.48Zm4.16,4.85a1.38,1.38,0,0,1-1-.4,1.39,1.39,0,0,1-.4-1,1.39,1.39,0,0,1,2.77,0,1.4,1.4,0,0,1-.41,1A1.38,1.38,0,0,1,254.72,551.19Z"/><path class="cls-13" d="M309.15,525.89H391v52h-81.8Z"/><path class="cls-14" d="M355.94,547H344.85v9.71l6.44-6.45a.7.7,0,0,1,.49-.2.68.68,0,0,1,.49.2l3.67,3.68Zm-12.48-.69a.73.73,0,0,1,.21-.49.67.67,0,0,1,.48-.2h12.49a.69.69,0,0,1,.69.69v11.1a.67.67,0,0,1-.2.48.73.73,0,0,1-.49.21H344.15a.72.72,0,0,1-.69-.69Zm4.16,4.85a1.37,1.37,0,0,1-1.38-1.38,1.38,1.38,0,0,1,.4-1,1.39,1.39,0,0,1,2,0,1.42,1.42,0,0,1,.4,1,1.44,1.44,0,0,1-.4,1A1.4,1.4,0,0,1,347.62,551.19Z"/><path class="cls-13" d="M402.05,525.89h81.8v52h-81.8Z"/><path class="cls-14" d="M448.84,547H437.75v9.71l6.44-6.45a.7.7,0,0,1,.49-.2.68.68,0,0,1,.49.2l3.67,3.68Zm-12.48-.69a.69.69,0,0,1,.21-.49.67.67,0,0,1,.48-.2h12.49a.69.69,0,0,1,.69.69v11.1a.72.72,0,0,1-.2.48.75.75,0,0,1-.49.21H437.05a.71.71,0,0,1-.49-.21.72.72,0,0,1-.2-.48Zm4.16,4.85a1.38,1.38,0,0,1-1-.4,1.39,1.39,0,0,1-.4-1,1.39,1.39,0,0,1,2.77,0,1.4,1.4,0,0,1-.41,1A1.38,1.38,0,0,1,440.52,551.19Z"/><path class="cls-13" d="M494.94,525.89h81.81v52H494.94Z"/><path class="cls-14" d="M541.74,547H530.65v9.71l6.44-6.45a.7.7,0,0,1,1,0l3.67,3.68Zm-12.48-.69a.72.72,0,0,1,.2-.49.7.7,0,0,1,.49-.2h12.49a.69.69,0,0,1,.69.69v11.1a.68.68,0,0,1-.21.48.71.71,0,0,1-.48.21H530a.71.71,0,0,1-.49-.21.67.67,0,0,1-.2-.48Zm4.16,4.85a1.38,1.38,0,0,1-1-.4,1.4,1.4,0,0,1-.41-1,1.39,1.39,0,0,1,2.78,0,1.4,1.4,0,0,1-.41,1A1.38,1.38,0,0,1,533.42,551.19Z"/><path class="cls-13" d="M587.85,525.89h81.8v52h-81.8Z"/><path class="cls-14" d="M634.64,547H623.55v9.71l6.44-6.45a.7.7,0,0,1,.49-.2.68.68,0,0,1,.49.2l3.67,3.68Zm-12.48-.69a.69.69,0,0,1,.21-.49.66.66,0,0,1,.48-.2h12.49a.69.69,0,0,1,.69.69v11.1a.67.67,0,0,1-.2.48.75.75,0,0,1-.49.21H622.85a.71.71,0,0,1-.49-.21.72.72,0,0,1-.2-.48Zm4.16,4.85a1.37,1.37,0,0,1-1.38-1.38,1.38,1.38,0,0,1,.4-1,1.4,1.4,0,0,1,1-.41,1.4,1.4,0,0,1,1.39,1.39,1.4,1.4,0,0,1-.41,1A1.38,1.38,0,0,1,626.32,551.19Z"/><line class="cls-15" x1="92" y1="505.5" x2="704" y2="505.5"/><path class="cls-16" d="M96,481H207a4,4,0,0,1,4,4h0a4,4,0,0,1-4,4H96a4,4,0,0,1-4-4h0A4,4,0,0,1,96,481Z"/><path d="M47.77,252H43v-.51l.67-.05a6.13,6.13,0,0,0,.62-.1.71.71,0,0,0,.34-.23.82.82,0,0,0,.12-.49v-5H42.93V245h.4a3.17,3.17,0,0,0,1.37-.29,2.45,2.45,0,0,0,.88-.61h.59c0,.31,0,.67,0,1.08s0,.79,0,1.12v4.22a.93.93,0,0,0,.1.45.72.72,0,0,0,.33.29,2.66,2.66,0,0,0,.6.14,5.36,5.36,0,0,0,.63.07Zm6.71-10.86L49.55,255h-.92l4.91-13.88Zm8,4.2a3.52,3.52,0,0,1,.67,1.29,4.91,4.91,0,0,1,.23,1.54,5,5,0,0,1-.28,1.74,3.55,3.55,0,0,1-.76,1.27,3.12,3.12,0,0,1-1.18.78,4.17,4.17,0,0,1-1.53.27,4.07,4.07,0,0,1-1.64-.31,3,3,0,0,1-1.17-.84,3.62,3.62,0,0,1-.7-1.3,5.22,5.22,0,0,1-.23-1.61,5.11,5.11,0,0,1,.22-1.56,3.85,3.85,0,0,1,.7-1.29,3.18,3.18,0,0,1,1.18-.88,4.08,4.08,0,0,1,1.65-.32,3.86,3.86,0,0,1,1.67.33A3.25,3.25,0,0,1,62.45,245.34Zm-.67,2.83a5,5,0,0,0-.59-2.63,1.78,1.78,0,0,0-1.57-.94,1.81,1.81,0,0,0-1.6.94,5,5,0,0,0-.59,2.63,5.3,5.3,0,0,0,.56,2.6,1.82,1.82,0,0,0,3.22,0A5.19,5.19,0,0,0,61.78,248.17Z"/><path class="cls-17" d="M756,232l-10-9.47L756,213m-20,0,10,9.47L736,232"/><path class="cls-17" d="M685.35,213H692v6.18M679.65,232H673v-6.18m18.76-.47V232h-6.17M673,219.65V213h6.17"/></svg>