<svg width="521" height="347" viewBox="0 0 521 347" fill="none" xmlns="http://www.w3.org/2000/svg">
<g clip-path="url(#clip0_550_8687)">
<path d="M208.426 320.657L201.92 327.083L208.426 333.509" stroke="black" stroke-width="1.4458" stroke-linecap="square" stroke-linejoin="bevel"/>
</g>
<circle cx="205.759" cy="326.757" r="19.377" transform="rotate(180 205.759 326.757)" stroke="black" stroke-width="0.759881"/>
<g clip-path="url(#clip1_550_8687)">
<path d="M312.574 332.856L319.08 326.43L312.574 320.005" stroke="black" stroke-width="1.4458" stroke-linecap="square" stroke-linejoin="bevel"/>
</g>
<circle cx="315.241" cy="326.757" r="19.377" stroke="black" stroke-width="0.759881"/>
<path d="M255.156 330.855H250.35V330.348C250.492 330.339 250.713 330.32 251.013 330.291C251.317 330.258 251.526 330.225 251.64 330.191C251.788 330.144 251.9 330.068 251.976 329.963C252.056 329.854 252.097 329.692 252.097 329.478V324.472H250.321V323.873H250.713C251.227 323.873 251.686 323.778 252.09 323.587C252.499 323.397 252.791 323.193 252.967 322.974H253.559C253.545 323.283 253.53 323.644 253.516 324.058C253.502 324.472 253.495 324.843 253.495 325.171V329.4C253.495 329.566 253.53 329.716 253.602 329.849C253.678 329.978 253.785 330.073 253.923 330.134C254.046 330.187 254.248 330.234 254.529 330.277C254.809 330.32 255.018 330.344 255.156 330.348V330.855ZM261.867 319.993L256.939 333.879H256.012L260.926 319.993H261.867ZM269.834 324.194C270.138 324.56 270.364 324.99 270.511 325.484C270.663 325.974 270.739 326.488 270.739 327.025C270.739 327.672 270.647 328.252 270.461 328.765C270.276 329.274 270.021 329.697 269.698 330.035C269.365 330.382 268.971 330.643 268.514 330.819C268.058 330.995 267.549 331.083 266.988 331.083C266.375 331.083 265.828 330.981 265.348 330.776C264.868 330.572 264.478 330.291 264.178 329.935C263.864 329.564 263.629 329.131 263.472 328.637C263.32 328.138 263.244 327.6 263.244 327.025C263.244 326.459 263.318 325.939 263.465 325.463C263.617 324.988 263.852 324.557 264.171 324.172C264.475 323.801 264.868 323.509 265.348 323.295C265.828 323.081 266.377 322.974 266.995 322.974C267.647 322.974 268.205 323.083 268.671 323.302C269.137 323.521 269.525 323.818 269.834 324.194ZM269.163 327.025C269.163 325.893 268.968 325.016 268.578 324.393C268.193 323.77 267.668 323.459 267.002 323.459C266.327 323.459 265.795 323.77 265.405 324.393C265.015 325.016 264.82 325.893 264.82 327.025C264.82 328.099 265.005 328.965 265.376 329.621C265.752 330.272 266.289 330.598 266.988 330.598C267.687 330.598 268.224 330.272 268.6 329.621C268.975 328.965 269.163 328.099 269.163 327.025Z" fill="black"/>
<path d="M0.5 0.5H520.5V285.5H0.5V0.5Z" stroke="black" stroke-opacity="0.25"/>
<g clip-path="url(#clip2_550_8687)">
<path d="M277.501 135.5V141H283.001V144.667H277.501V150.167H273.835V144.667H268.335V141H273.835V135.5H277.501ZM277.516 113.5C278.521 113.5 279.335 114.316 279.335 115.32V131.833H275.668V117.167H246.335V142.831L264.668 124.5L270.168 130V135.186L264.668 129.687L251.517 142.833H264.668V146.5H244.487C244.004 146.5 243.542 146.307 243.201 145.966C242.86 145.625 242.668 145.162 242.668 144.679V115.32C242.671 114.839 242.864 114.378 243.204 114.038C243.545 113.697 244.005 113.504 244.487 113.5H277.516ZM253.668 120.833C254.64 120.833 255.573 121.22 256.261 121.907C256.948 122.595 257.335 123.528 257.335 124.5C257.335 125.472 256.948 126.405 256.261 127.093C255.573 127.78 254.64 128.167 253.668 128.167C252.696 128.167 251.763 127.78 251.075 127.093C250.388 126.405 250.001 125.472 250.001 124.5C250.001 123.528 250.388 122.595 251.075 121.907C251.763 121.22 252.696 120.833 253.668 120.833V120.833Z" fill="black"/>
</g>
<defs>
<clipPath id="clip0_550_8687">
<rect width="8.67482" height="15.9038" fill="white" transform="translate(209.871 335.115) rotate(180)"/>
</clipPath>
<clipPath id="clip1_550_8687">
<rect width="8.67482" height="15.9038" fill="white" transform="translate(311.129 318.398)"/>
</clipPath>
<clipPath id="clip2_550_8687">
<rect width="44" height="44" fill="white" transform="translate(239 108)"/>
</clipPath>
</defs>
</svg>
