<svg width="791" height="794" viewBox="0 0 791 794" fill="none" xmlns="http://www.w3.org/2000/svg">
<g clip-path="url(#clip0_601_8782)">
<path d="M791 0H0V794H791V0Z" fill="white" stroke="#C4C4C4" stroke-width="2"/>
<path d="M343.428 550.657L336.922 557.083L343.428 563.509" stroke="black" stroke-width="1.4458" stroke-linecap="square" stroke-linejoin="bevel"/>
<path d="M340.756 537.38C330.054 537.38 321.379 546.055 321.379 556.757C321.379 567.459 330.054 576.134 340.756 576.134C351.457 576.134 360.133 567.459 360.133 556.757C360.133 546.055 351.457 537.38 340.756 537.38Z" stroke="black" stroke-width="0.759881"/>
<path d="M447.57 562.856L454.076 556.43L447.57 550.005" stroke="black" stroke-width="1.4458" stroke-linecap="square" stroke-linejoin="bevel"/>
<path d="M450.244 576.134C460.946 576.134 469.621 567.459 469.621 556.757C469.621 546.055 460.946 537.38 450.244 537.38C439.543 537.38 430.867 546.055 430.867 556.757C430.867 567.459 439.543 576.134 450.244 576.134Z" stroke="black" stroke-width="0.759881"/>
<path d="M390.155 560.855H385.349V560.348C385.491 560.339 385.712 560.32 386.012 560.291C386.316 560.258 386.525 560.225 386.639 560.191C386.787 560.144 386.899 560.068 386.975 559.963C387.055 559.854 387.096 559.692 387.096 559.478V554.472H385.32V553.873H385.712C386.226 553.873 386.685 553.777 387.089 553.587C387.498 553.397 387.79 553.193 387.966 552.974H388.558C388.544 553.283 388.529 553.644 388.515 554.058C388.501 554.472 388.494 554.842 388.494 555.171V559.4C388.494 559.566 388.529 559.716 388.601 559.849C388.677 559.977 388.784 560.072 388.922 560.134C389.045 560.187 389.247 560.234 389.528 560.277C389.808 560.32 390.017 560.343 390.155 560.348V560.855ZM396.866 549.993L391.938 563.879H391.011L395.925 549.993H396.866ZM404.833 554.193C405.137 554.56 405.363 554.99 405.51 555.484C405.662 555.974 405.738 556.488 405.738 557.025C405.738 557.671 405.646 558.251 405.46 558.765C405.275 559.274 405.02 559.697 404.697 560.034C404.364 560.382 403.97 560.643 403.513 560.819C403.057 560.995 402.548 561.083 401.987 561.083C401.374 561.083 400.827 560.981 400.347 560.776C399.867 560.572 399.477 560.291 399.177 559.935C398.863 559.564 398.628 559.131 398.471 558.637C398.319 558.137 398.243 557.6 398.243 557.025C398.243 556.459 398.317 555.938 398.464 555.463C398.616 554.987 398.851 554.557 399.17 554.172C399.474 553.801 399.867 553.509 400.347 553.295C400.827 553.081 401.376 552.974 401.994 552.974C402.646 552.974 403.204 553.083 403.67 553.302C404.136 553.521 404.524 553.818 404.833 554.193ZM404.162 557.025C404.162 555.893 403.967 555.016 403.577 554.393C403.192 553.77 402.667 553.459 402.001 553.459C401.326 553.459 400.794 553.77 400.404 554.393C400.014 555.016 399.819 555.893 399.819 557.025C399.819 558.099 400.004 558.965 400.375 559.621C400.751 560.272 401.288 560.598 401.987 560.598C402.686 560.598 403.223 560.272 403.599 559.621C403.974 558.965 404.162 558.099 404.162 557.025Z" fill="black"/>
<path d="M135.5 230.5H655.5V515.5H135.5V230.5Z" stroke="black" stroke-opacity="0.5"/>
<path d="M419.2 352.8H372.8V393.4L399.747 366.448C400.29 365.904 401.028 365.599 401.797 365.599C402.566 365.599 403.303 365.904 403.847 366.448L419.2 381.829V352.8ZM367 349.879C367.005 349.118 367.31 348.389 367.848 347.851C368.386 347.312 369.115 347.006 369.876 347H422.124C423.712 347 425 348.291 425 349.879V396.321C424.995 397.082 424.69 397.811 424.152 398.349C423.614 398.888 422.885 399.194 422.124 399.2H369.876C369.113 399.199 368.381 398.896 367.842 398.356C367.303 397.815 367 397.084 367 396.321V349.879ZM384.4 370.2C382.862 370.2 381.386 369.589 380.299 368.502C379.211 367.414 378.6 365.938 378.6 364.4C378.6 362.862 379.211 361.386 380.299 360.298C381.386 359.211 382.862 358.6 384.4 358.6C385.938 358.6 387.413 359.211 388.501 360.298C389.589 361.386 390.2 362.862 390.2 364.4C390.2 365.938 389.589 367.414 388.501 368.502C387.413 369.589 385.938 370.2 384.4 370.2Z" fill="black"/>
<path opacity="0.3" d="M606.5 175H144.5C139.253 175 135 179.253 135 184.5C135 189.747 139.253 194 144.5 194H606.5C611.747 194 616 189.747 616 184.5C616 179.253 611.747 175 606.5 175Z" fill="#C4C4C4"/>
<path opacity="0.3" d="M436.5 671H144.5C139.253 671 135 675.253 135 680.5C135 685.747 139.253 690 144.5 690H436.5C441.747 690 446 685.747 446 680.5C446 675.253 441.747 671 436.5 671Z" fill="#C4C4C4"/>
<path opacity="0.3" d="M646.5 140H144.5C139.253 140 135 144.253 135 149.5C135 154.747 139.253 159 144.5 159H646.5C651.747 159 656 154.747 656 149.5C656 144.253 651.747 140 646.5 140Z" fill="#C4C4C4"/>
<path opacity="0.3" d="M646.5 636H144.5C139.253 636 135 640.253 135 645.5C135 650.747 139.253 655 144.5 655H646.5C651.747 655 656 650.747 656 645.5C656 640.253 651.747 636 646.5 636Z" fill="#C4C4C4"/>
<path opacity="0.3" d="M646.5 105H144.5C139.253 105 135 109.253 135 114.5C135 119.747 139.253 124 144.5 124H646.5C651.747 124 656 119.747 656 114.5C656 109.253 651.747 105 646.5 105Z" fill="#C4C4C4"/>
<path opacity="0.3" d="M646.5 601H144.5C139.253 601 135 605.253 135 610.5C135 615.747 139.253 620 144.5 620H646.5C651.747 620 656 615.747 656 610.5C656 605.253 651.747 601 646.5 601Z" fill="#C4C4C4"/>
</g>
<defs>
<clipPath id="clip0_601_8782">
<rect width="791" height="794" fill="white"/>
</clipPath>
</defs>
</svg>
