<svg width="821" height="424" viewBox="0 0 821 424" fill="none" xmlns="http://www.w3.org/2000/svg">
<path opacity="0.1" d="M790 33H481V390H790V33Z" fill="#C4C4C4"/>
<path d="M820 1H1V423H820V1Z" fill="white" stroke="#C4C4C4" stroke-width="2"/>
<g opacity="0.8">
<path opacity="0.4" d="M383.691 40H61.3089C56.1677 40 52 44.2533 52 49.5C52 54.7467 56.1677 59 61.3089 59H383.691C388.832 59 393 54.7467 393 49.5C393 44.2533 388.832 40 383.691 40Z" fill="#C4C4C4"/>
<path opacity="0.4" d="M383.691 76H61.3089C56.1677 76 52 80.2533 52 85.5C52 90.7467 56.1677 95 61.3089 95H383.691C388.832 95 393 90.7467 393 85.5C393 80.2533 388.832 76 383.691 76Z" fill="#C4C4C4"/>
<path opacity="0.4" d="M383.691 112H61.3089C56.1677 112 52 116.253 52 121.5C52 126.747 56.1677 131 61.3089 131H383.691C388.832 131 393 126.747 393 121.5C393 116.253 388.832 112 383.691 112Z" fill="#C4C4C4"/>
<path opacity="0.4" d="M383.691 148H61.3089C56.1677 148 52 152.253 52 157.5C52 162.747 56.1677 167 61.3089 167H383.691C388.832 167 393 162.747 393 157.5C393 152.253 388.832 148 383.691 148Z" fill="#C4C4C4"/>
<path opacity="0.4" d="M383.691 184H61.3089C56.1677 184 52 188.253 52 193.5C52 198.747 56.1677 203 61.3089 203H383.691C388.832 203 393 198.747 393 193.5C393 188.253 388.832 184 383.691 184Z" fill="#C4C4C4"/>
<path opacity="0.4" d="M383.691 220H61.3089C56.1677 220 52 224.253 52 229.5C52 234.747 56.1677 239 61.3089 239H383.691C388.832 239 393 234.747 393 229.5C393 224.253 388.832 220 383.691 220Z" fill="#C4C4C4"/>
<path opacity="0.4" d="M383.691 256H61.3089C56.1677 256 52 260.253 52 265.5C52 270.747 56.1677 275 61.3089 275H383.691C388.832 275 393 270.747 393 265.5C393 260.253 388.832 256 383.691 256Z" fill="#C4C4C4"/>
<path opacity="0.4" d="M383.691 292H61.3089C56.1677 292 52 296.253 52 301.5C52 306.747 56.1677 311 61.3089 311H383.691C388.832 311 393 306.747 393 301.5C393 296.253 388.832 292 383.691 292Z" fill="#C4C4C4"/>
<path opacity="0.4" d="M367.7 328H61.2997C56.1636 328 52 332.253 52 337.5C52 342.747 56.1636 347 61.2997 347H367.7C372.836 347 377 342.747 377 337.5C377 332.253 372.836 328 367.7 328Z" fill="#C4C4C4"/>
<path opacity="0.4" d="M266.099 364H60.9013C55.9852 364 52 368.253 52 373.5C52 378.747 55.9852 383 60.9013 383H266.099C271.015 383 275 378.747 275 373.5C275 368.253 271.015 364 266.099 364Z" fill="#C4C4C4"/>
</g>
<path opacity="0.1" d="M770 33H461V221H770V33Z" fill="#C4C4C4"/>
<rect x="461" y="238" width="137" height="19" rx="9.5" fill="#C4C4C4" fill-opacity="0.5"/>
<rect x="461" y="274" width="271" height="19" rx="9.5" fill="#ECECEC"/>
<rect opacity="0.5" x="461" y="310" width="94" height="19" rx="9.5" fill="#C4C4C4" fill-opacity="0.6"/>
<rect x="462" y="356" width="307" height="40" fill="#F5F5F5" fill-opacity="0.5" stroke="#E4E4E4" stroke-width="2"/>
<g clip-path="url(#clip0_513_8842)">
<path d="M643.619 106.286H628.429V112.196C628.846 112.437 629.193 112.783 629.435 113.2C629.678 113.617 629.807 114.089 629.81 114.571C629.81 115.304 629.518 116.006 629.001 116.524C628.483 117.042 627.78 117.333 627.048 117.333C626.315 117.333 625.613 117.042 625.095 116.524C624.577 116.006 624.286 115.304 624.286 114.571C624.289 114.089 624.418 113.617 624.66 113.2C624.902 112.783 625.249 112.437 625.667 112.196V106.286H606.333V112.196C606.751 112.437 607.098 112.783 607.34 113.2C607.582 113.617 607.711 114.089 607.714 114.571C607.714 115.304 607.423 116.006 606.905 116.524C606.387 117.042 605.685 117.333 604.952 117.333C604.22 117.333 603.517 117.042 602.999 116.524C602.482 116.006 602.19 115.304 602.19 114.571C602.193 114.089 602.322 113.617 602.565 113.2C602.807 112.783 603.154 112.437 603.571 112.196V106.286H588.381C588.015 106.286 587.663 106.431 587.404 106.69C587.146 106.949 587 107.3 587 107.667V160.143C587 160.509 587.146 160.86 587.404 161.119C587.663 161.378 588.015 161.524 588.381 161.524H643.619C643.985 161.524 644.337 161.378 644.596 161.119C644.854 160.86 645 160.509 645 160.143V107.667C645 107.3 644.854 106.949 644.596 106.69C644.337 106.431 643.985 106.286 643.619 106.286Z" fill="#D9D9D9"/>
<path d="M606.332 104.905C606.332 102.341 607.351 99.8822 609.163 98.0694C610.976 96.2565 613.435 95.2381 615.999 95.2381C618.563 95.2381 621.021 96.2565 622.834 98.0694C624.647 99.8822 625.666 102.341 625.666 104.905V106.286H628.427V104.905C628.427 101.609 627.118 98.4472 624.787 96.1164C622.456 93.7856 619.295 92.4762 615.999 92.4762C612.703 92.4762 609.541 93.7856 607.211 96.1164C604.88 98.4472 603.57 101.609 603.57 104.905V106.286H606.332V104.905Z" fill="#D9D9D9"/>
</g>
<defs>
<clipPath id="clip0_513_8842">
<rect width="58" height="69.0476" fill="white" transform="translate(587 92.4761)"/>
</clipPath>
</defs>
</svg>
