<svg width="821" height="424" viewBox="0 0 821 424" fill="none" xmlns="http://www.w3.org/2000/svg">
<rect x="1" y="1" width="819" height="422" fill="white" stroke="#C4C4C4" stroke-width="2"/>
<rect opacity="0.1" x="150" y="69" width="521" height="286" fill="#C4C4C4"/>
<path d="M439.667 186.917H382.333V237.083L415.63 203.78C416.301 203.108 417.213 202.731 418.163 202.731C419.113 202.731 420.024 203.108 420.696 203.78L439.667 222.786V186.917ZM375.167 183.308C375.173 182.367 375.55 181.466 376.215 180.801C376.88 180.135 377.78 179.758 378.721 179.75H443.279C445.242 179.75 446.833 181.345 446.833 183.308V240.692C446.827 241.633 446.45 242.534 445.785 243.199C445.12 243.865 444.22 244.242 443.279 244.25H378.721C377.778 244.249 376.874 243.874 376.207 243.207C375.541 242.539 375.167 241.635 375.167 240.692V183.308ZM396.667 208.417C394.766 208.417 392.943 207.662 391.599 206.318C390.255 204.974 389.5 203.151 389.5 201.25C389.5 199.349 390.255 197.526 391.599 196.182C392.943 194.838 394.766 194.083 396.667 194.083C398.567 194.083 400.39 194.838 401.734 196.182C403.078 197.526 403.833 199.349 403.833 201.25C403.833 203.151 403.078 204.974 401.734 206.318C400.39 207.662 398.567 208.417 396.667 208.417Z" fill="#C4C4C4" fill-opacity="0.6"/>
<rect opacity="0.1" x="150" y="69" width="521" height="286" fill="#C4C4C4"/>
<path d="M439.667 186.917H382.333V237.083L415.63 203.78C416.301 203.108 417.213 202.731 418.163 202.731C419.113 202.731 420.024 203.108 420.696 203.78L439.667 222.786V186.917ZM375.167 183.308C375.173 182.367 375.55 181.466 376.215 180.801C376.88 180.135 377.78 179.758 378.721 179.75H443.279C445.242 179.75 446.833 181.345 446.833 183.308V240.692C446.827 241.633 446.45 242.534 445.785 243.199C445.12 243.865 444.22 244.242 443.279 244.25H378.721C377.778 244.249 376.874 243.874 376.207 243.207C375.541 242.539 375.167 241.635 375.167 240.692V183.308ZM396.667 208.417C394.766 208.417 392.943 207.662 391.599 206.318C390.255 204.974 389.5 203.151 389.5 201.25C389.5 199.349 390.255 197.526 391.599 196.182C392.943 194.838 394.766 194.083 396.667 194.083C398.567 194.083 400.39 194.838 401.734 196.182C403.078 197.526 403.833 199.349 403.833 201.25C403.833 203.151 403.078 204.974 401.734 206.318C400.39 207.662 398.567 208.417 396.667 208.417Z" fill="#C4C4C4" fill-opacity="0.6"/>
<path d="M745.419 212L730.981 197.562L735.106 193.438L753.667 212L735.106 230.562L730.981 226.437L745.419 212Z" fill="#D9D9D9"/>
<path d="M57.5811 212L72.0186 226.438L67.8944 230.562L49.3327 212L67.8944 193.438L72.0186 197.563L57.5811 212Z" fill="#D9D9D9"/>
</svg>
