<svg width="821" height="424" viewBox="0 0 821 424" fill="none" xmlns="http://www.w3.org/2000/svg">
<path opacity="0.1" d="M790 33H481V390H790V33Z" fill="#C4C4C4"/>
<path d="M820 1H1V423H820V1Z" fill="white" stroke="#C4C4C4" stroke-width="2"/>
<path opacity="0.6" d="M324 72H77C69.268 72 63 78.268 63 86C63 93.732 69.268 100 77 100H324C331.732 100 338 93.732 338 86C338 78.268 331.732 72 324 72Z" fill="#C4C4C4"/>
<path opacity="0.6" d="M238.5 114H76.5C69.0442 114 63 120.044 63 127.5C63 134.956 69.0442 141 76.5 141H238.5C245.956 141 252 134.956 252 127.5C252 120.044 245.956 114 238.5 114Z" fill="#C4C4C4"/>
<g opacity="0.7">
<path opacity="0.4" d="M401.5 180H72.5C67.2533 180 63 184.253 63 189.5C63 194.747 67.2533 199 72.5 199H401.5C406.747 199 411 194.747 411 189.5C411 184.253 406.747 180 401.5 180Z" fill="#C4C4C4"/>
<path opacity="0.4" d="M401.5 216H72.5C67.2533 216 63 220.253 63 225.5C63 230.747 67.2533 235 72.5 235H401.5C406.747 235 411 230.747 411 225.5C411 220.253 406.747 216 401.5 216Z" fill="#C4C4C4"/>
<path opacity="0.4" d="M401.5 252H72.5C67.2533 252 63 256.253 63 261.5C63 266.747 67.2533 271 72.5 271H401.5C406.747 271 411 266.747 411 261.5C411 256.253 406.747 252 401.5 252Z" fill="#C4C4C4"/>
<path opacity="0.4" d="M385.5 288H72.5C67.2533 288 63 292.253 63 297.5C63 302.747 67.2533 307 72.5 307H385.5C390.747 307 395 302.747 395 297.5C395 292.253 390.747 288 385.5 288Z" fill="#C4C4C4"/>
<path opacity="0.4" d="M291.5 324H72.5C67.2533 324 63 328.253 63 333.5C63 338.747 67.2533 343 72.5 343H291.5C296.747 343 301 338.747 301 333.5C301 328.253 296.747 324 291.5 324Z" fill="#C4C4C4"/>
</g>
<path opacity="0.2" d="M790 33H481V390H790V33Z" fill="#C4C4C4"/>
<path d="M664.668 186.917H607.334V237.083L640.631 203.78C641.302 203.108 642.214 202.731 643.164 202.731C644.114 202.731 645.025 203.108 645.697 203.78L664.668 222.786V186.917ZM600.168 183.308C600.174 182.367 600.551 181.466 601.216 180.801C601.881 180.135 602.781 179.758 603.722 179.75H668.28C670.243 179.75 671.834 181.345 671.834 183.308V240.692C671.828 241.633 671.451 242.534 670.786 243.199C670.121 243.865 669.221 244.242 668.28 244.25H603.722C602.779 244.249 601.875 243.874 601.208 243.207C600.542 242.539 600.168 241.635 600.168 240.692V183.308ZM621.668 208.417C619.767 208.417 617.944 207.662 616.6 206.318C615.256 204.974 614.501 203.151 614.501 201.25C614.501 199.349 615.256 197.526 616.6 196.182C617.944 194.838 619.767 194.083 621.668 194.083C623.568 194.083 625.391 194.838 626.735 196.182C628.079 197.526 628.834 199.349 628.834 201.25C628.834 203.151 628.079 204.974 626.735 206.318C625.391 207.662 623.568 208.417 621.668 208.417Z" fill="#C4C4C4" fill-opacity="0.8"/>
</svg>
