<svg width="821" height="424" viewBox="0 0 821 424" fill="none" xmlns="http://www.w3.org/2000/svg">
<path d="M820 1H1V423H820V1Z" fill="white" stroke="#C4C4C4" stroke-width="2"/>
<g opacity="0.4">
<path opacity="0.4" d="M654.5 97H72.5C67.2533 97 63 101.253 63 106.5C63 111.747 67.2533 116 72.5 116H654.5C659.747 116 664 111.747 664 106.5C664 101.253 659.747 97 654.5 97Z" fill="#C4C4C4"/>
<path opacity="0.4" d="M654.5 133H72.5C67.2533 133 63 137.253 63 142.5C63 147.747 67.2533 152 72.5 152H654.5C659.747 152 664 147.747 664 142.5C664 137.253 659.747 133 654.5 133Z" fill="#C4C4C4"/>
<path opacity="0.4" d="M654.5 169H72.5C67.2533 169 63 173.253 63 178.5C63 183.747 67.2533 188 72.5 188H654.5C659.747 188 664 183.747 664 178.5C664 173.253 659.747 169 654.5 169Z" fill="#C4C4C4"/>
<path opacity="0.4" d="M654.5 205H72.5C67.2533 205 63 209.253 63 214.5C63 219.747 67.2533 224 72.5 224H654.5C659.747 224 664 219.747 664 214.5C664 209.253 659.747 205 654.5 205Z" fill="#C4C4C4"/>
<path opacity="0.4" d="M654.5 241H72.5C67.2533 241 63 245.253 63 250.5C63 255.747 67.2533 260 72.5 260H654.5C659.747 260 664 255.747 664 250.5C664 245.253 659.747 241 654.5 241Z" fill="#C4C4C4"/>
<path opacity="0.4" d="M654.24 277H72.7598C67.3696 277 63 281.253 63 286.5C63 291.747 67.3696 296 72.7598 296H654.24C659.63 296 664 291.747 664 286.5C664 281.253 659.63 277 654.24 277Z" fill="#C4C4C4"/>
<path opacity="0.4" d="M654.5 313H72.5C67.2533 313 63 317.253 63 322.5C63 327.747 67.2533 332 72.5 332H654.5C659.747 332 664 327.747 664 322.5C664 317.253 659.747 313 654.5 313Z" fill="#C4C4C4"/>
<path opacity="0.4" d="M359.5 349H72.5C67.2533 349 63 353.253 63 358.5C63 363.747 67.2533 368 72.5 368H359.5C364.747 368 369 363.747 369 358.5C369 353.253 364.747 349 359.5 349Z" fill="#C4C4C4"/>
</g>
<line x1="1" y1="52" x2="820" y2="52.0001" stroke="#C4C4C4" stroke-width="2"/>
<path d="M65.1229 36V16.6767H72.1993C73.5706 16.6767 74.7059 16.9032 75.6054 17.356C76.5049 17.8026 77.178 18.4096 77.6246 19.177C78.0712 19.9381 78.2945 20.7967 78.2945 21.7528C78.2945 22.558 78.1466 23.2373 77.851 23.7909C77.5554 24.3381 77.1591 24.7784 76.6622 25.1118C76.1715 25.4389 75.6306 25.6779 75.0393 25.8289V26.0176C75.6809 26.049 76.3068 26.2566 76.9169 26.6403C77.5334 27.0177 78.0429 27.5555 78.4454 28.2537C78.848 28.9519 79.0493 29.8011 79.0493 30.8012C79.0493 31.7888 78.8165 32.6757 78.3511 33.4619C77.8919 34.2419 77.1811 34.8615 76.2187 35.3207C75.2563 35.7736 74.0266 36 72.5296 36H65.1229ZM68.0384 33.4997H72.2465C73.6429 33.4997 74.643 33.2292 75.2469 32.6882C75.8507 32.1473 76.1527 31.4711 76.1527 30.6597C76.1527 30.0495 75.9986 29.4897 75.6903 28.9802C75.3821 28.4707 74.9418 28.065 74.3694 27.7631C73.8033 27.4611 73.1303 27.3102 72.3503 27.3102H68.0384V33.4997ZM68.0384 25.0363H71.9446C72.5987 25.0363 73.1869 24.9105 73.709 24.6589C74.2373 24.4073 74.6556 24.055 74.9638 23.6021C75.2783 23.143 75.4356 22.602 75.4356 21.9793C75.4356 21.1804 75.1557 20.5105 74.5959 19.9696C74.036 19.4286 73.1774 19.1582 72.0201 19.1582H68.0384V25.0363Z" fill="black"/>
<path d="M157.501 17.7247H159.813V27.7715C159.813 28.8406 159.562 29.7878 159.06 30.6132C158.558 31.4337 157.852 32.0801 156.942 32.5525C156.032 33.0199 154.965 33.2536 153.742 33.2536C152.524 33.2536 151.46 33.0199 150.55 32.5525C149.64 32.0801 148.934 31.4337 148.432 30.6132C147.929 29.7878 147.678 28.8406 147.678 27.7715V17.7247H149.983V27.585C149.983 28.2762 150.135 28.8903 150.438 29.4273C150.746 29.9643 151.181 30.387 151.743 30.6953C152.305 30.9986 152.971 31.1503 153.742 31.1503C154.518 31.1503 155.187 30.9986 155.748 30.6953C156.315 30.387 156.748 29.9643 157.046 29.4273C157.35 28.8903 157.501 28.2762 157.501 27.585V17.7247Z" fill="black"/>
<path d="M146 37.1768H161.492V38.6089H146V37.1768Z" fill="black"/>
<path d="M105.689 37L105.888 36.487L107.77 36.1735C108.34 36.0785 108.777 35.9835 109.081 35.8885C109.385 35.7745 109.622 35.613 109.793 35.404C109.964 35.195 110.126 34.891 110.278 34.492L115.978 20.3275C116.225 19.7195 116.272 19.3205 116.12 19.1305C115.987 18.9405 115.56 18.779 114.838 18.646L113.242 18.3325L113.441 17.8195H123.131L122.932 18.3325L121.051 18.646C120.5 18.741 120.063 18.8455 119.74 18.9595C119.436 19.0545 119.198 19.2065 119.027 19.4155C118.875 19.6245 118.714 19.9285 118.543 20.3275L112.843 34.492C112.596 35.081 112.539 35.4705 112.672 35.6605C112.824 35.8505 113.261 36.0215 113.983 36.1735L115.579 36.487L115.379 37H105.689Z" fill="black"/>
<rect x="226" y="18.4194" width="19.6129" height="2.45161" rx="1.22581" fill="black"/>
<rect x="226" y="23.3226" width="12.2581" height="2.45161" rx="1.22581" fill="black"/>
<rect x="226" y="28.2258" width="19.6129" height="2.45161" rx="1.22581" fill="black"/>
<rect x="226" y="33.129" width="12.2581" height="2.45161" rx="1.22581" fill="black"/>
<rect x="270.129" y="18.4194" width="19.6129" height="2.45161" rx="1.22581" fill="black"/>
<rect x="273.805" y="23.3227" width="12.2581" height="2.45161" rx="1.22581" fill="black"/>
<rect x="270.129" y="28.2259" width="19.6129" height="2.45161" rx="1.22581" fill="black"/>
<rect x="273.805" y="33.1291" width="12.2581" height="2.45161" rx="1.22581" fill="black"/>
<rect x="314.258" y="18.4194" width="19.6129" height="2.45161" rx="1.22581" fill="black"/>
<rect x="321.613" y="23.3227" width="12.2581" height="2.45161" rx="1.22581" fill="black"/>
<rect x="314.258" y="28.2259" width="19.6129" height="2.45161" rx="1.22581" fill="black"/>
<rect x="321.613" y="33.1291" width="12.2581" height="2.45161" rx="1.22581" fill="black"/>
<rect x="358.387" y="18.4194" width="19.6129" height="2.45161" rx="1.22581" fill="black"/>
<rect x="358.387" y="23.3227" width="19.6129" height="2.45161" rx="1.22581" fill="black"/>
<rect x="358.387" y="28.2259" width="19.6129" height="2.45161" rx="1.22581" fill="black"/>
<rect x="358.387" y="33.1291" width="19.6129" height="2.45161" rx="1.22581" fill="black"/>
<line opacity="0.2" x1="196" y1="51" x2="196" y2="1" stroke="#C4C4C4" stroke-width="2"/>
</svg>
