<svg width="821" height="424" viewBox="0 0 821 424" fill="none" xmlns="http://www.w3.org/2000/svg">
<rect x="1" y="1" width="819" height="422" fill="white" stroke="#C4C4C4" stroke-width="2"/>
<g opacity="0.4">
<rect x="77" y="71.4391" width="317.532" height="17.3365" rx="8.66826" fill="#C4C4C4"/>
<rect x="77" y="104.287" width="317.532" height="17.3365" rx="8.66826" fill="#C4C4C4"/>
<rect x="77" y="137.135" width="317.532" height="17.3365" rx="8.66826" fill="#C4C4C4"/>
<rect x="77" y="169.984" width="317.532" height="17.3365" rx="8.66826" fill="#C4C4C4"/>
<rect x="77" y="202.832" width="317.532" height="17.3365" rx="8.66826" fill="#C4C4C4"/>
<rect x="77" y="235.68" width="317.532" height="17.3365" rx="8.66826" fill="#C4C4C4"/>
<rect x="77" y="268.528" width="317.532" height="17.3365" rx="8.66826" fill="#C4C4C4"/>
<rect x="77" y="301.376" width="317.532" height="17.3365" rx="8.66826" fill="#C4C4C4"/>
<rect x="77" y="334.224" width="317.532" height="17.3365" rx="8.66826" fill="#C4C4C4"/>
</g>
<g opacity="0.4">
<rect x="426.468" y="71.4391" width="317.532" height="17.3365" rx="8.66826" fill="#C4C4C4"/>
<rect x="426.468" y="104.287" width="317.532" height="17.3365" rx="8.66826" fill="#C4C4C4"/>
<rect x="426.468" y="137.135" width="317.532" height="17.3365" rx="8.66826" fill="#C4C4C4"/>
<rect x="426.468" y="169.984" width="317.532" height="17.3365" rx="8.66826" fill="#C4C4C4"/>
<rect x="426.468" y="202.832" width="317.532" height="17.3365" rx="8.66826" fill="#C4C4C4"/>
<rect x="426.468" y="235.68" width="317.532" height="17.3365" rx="8.66826" fill="#C4C4C4"/>
<rect x="426.468" y="268.528" width="317.532" height="17.3365" rx="8.66826" fill="#C4C4C4"/>
<rect x="426.468" y="301.376" width="317.532" height="17.3365" rx="8.66826" fill="#C4C4C4"/>
<rect x="426.468" y="334.224" width="181.577" height="17.3365" rx="8.66826" fill="#C4C4C4"/>
</g>
</svg>
