<svg width="821" height="424" viewBox="0 0 821 424" fill="none" xmlns="http://www.w3.org/2000/svg">
<path opacity="0.1" d="M790 33H481V390H790V33Z" fill="#C4C4C4"/>
<path d="M820 1H1V423H820V1Z" fill="white" stroke="#C4C4C4" stroke-width="2"/>
<path opacity="0.1" d="M269.004 30H42V218H269.004V30Z" fill="#C4C4C4"/>
<rect x="42" y="235" width="100.646" height="19" rx="9.5" fill="#C4C4C4" fill-opacity="0.5"/>
<rect x="42" y="271" width="199.088" height="19" rx="9.5" fill="#EEEEEE"/>
<rect opacity="0.5" x="42" y="307" width="69.0562" height="19" rx="9.5" fill="#C4C4C4" fill-opacity="0.6"/>
<rect x="43" y="353" width="225.004" height="40" fill="#F5F5F5" fill-opacity="0.5"/>
<rect x="43" y="353" width="225.004" height="40" stroke="#E1E1E1" stroke-width="2"/>
<rect x="43" y="353" width="225.004" height="40" stroke="#E4E4E4" stroke-width="2"/>
<g clip-path="url(#clip0_513_8841)">
<path d="M183.619 102.81H168.429V108.72C168.846 108.961 169.193 109.307 169.435 109.724C169.678 110.141 169.807 110.613 169.81 111.095C169.81 111.828 169.518 112.53 169.001 113.048C168.483 113.566 167.78 113.857 167.048 113.857C166.315 113.857 165.613 113.566 165.095 113.048C164.577 112.53 164.286 111.828 164.286 111.095C164.289 110.613 164.418 110.141 164.66 109.724C164.902 109.307 165.249 108.961 165.667 108.72V102.81H146.333V108.72C146.751 108.961 147.098 109.307 147.34 109.724C147.582 110.141 147.711 110.613 147.714 111.095C147.714 111.828 147.423 112.53 146.905 113.048C146.387 113.566 145.685 113.857 144.952 113.857C144.22 113.857 143.517 113.566 142.999 113.048C142.482 112.53 142.19 111.828 142.19 111.095C142.193 110.613 142.322 110.141 142.565 109.724C142.807 109.307 143.154 108.961 143.571 108.72V102.81H128.381C128.015 102.81 127.663 102.955 127.404 103.214C127.146 103.473 127 103.824 127 104.191V156.667C127 157.033 127.146 157.384 127.404 157.643C127.663 157.902 128.015 158.048 128.381 158.048H183.619C183.985 158.048 184.337 157.902 184.596 157.643C184.854 157.384 185 157.033 185 156.667V104.191C185 103.824 184.854 103.473 184.596 103.214C184.337 102.955 183.985 102.81 183.619 102.81Z" fill="#D9D9D9"/>
<path d="M146.332 101.429C146.332 98.8649 147.351 96.4062 149.163 94.5933C150.976 92.7805 153.435 91.762 155.999 91.762C158.563 91.762 161.021 92.7805 162.834 94.5933C164.647 96.4062 165.666 98.8649 165.666 101.429V102.81H168.427V101.429C168.427 98.1324 167.118 94.9712 164.787 92.6404C162.456 90.3095 159.295 89.0001 155.999 89.0001C152.703 89.0001 149.541 90.3095 147.211 92.6404C144.88 94.9712 143.57 98.1324 143.57 101.429V102.81H146.332V101.429Z" fill="#D9D9D9"/>
</g>
<path opacity="0.1" d="M524.5 30H297.496V218H524.5V30Z" fill="#C4C4C4"/>
<rect x="297.496" y="235" width="100.646" height="19" rx="9.5" fill="#C4C4C4" fill-opacity="0.5"/>
<rect x="297.496" y="271" width="199.088" height="19" rx="9.5" fill="#EEEEEE"/>
<rect opacity="0.5" x="297.496" y="307" width="69.0562" height="19" rx="9.5" fill="#C4C4C4" fill-opacity="0.6"/>
<rect x="298.496" y="353" width="225.004" height="40" fill="#F5F5F5" fill-opacity="0.5" stroke="#E4E4E4" stroke-width="2"/>
<g clip-path="url(#clip1_513_8841)">
<path d="M438.619 102.81H423.429V108.72C423.846 108.961 424.193 109.307 424.435 109.724C424.678 110.141 424.807 110.613 424.81 111.095C424.81 111.828 424.518 112.53 424.001 113.048C423.483 113.566 422.78 113.857 422.048 113.857C421.315 113.857 420.613 113.566 420.095 113.048C419.577 112.53 419.286 111.828 419.286 111.095C419.289 110.613 419.418 110.141 419.66 109.724C419.902 109.307 420.249 108.961 420.667 108.72V102.81H401.333V108.72C401.751 108.961 402.098 109.307 402.34 109.724C402.582 110.141 402.711 110.613 402.714 111.095C402.714 111.828 402.423 112.53 401.905 113.048C401.387 113.566 400.685 113.857 399.952 113.857C399.22 113.857 398.517 113.566 397.999 113.048C397.482 112.53 397.19 111.828 397.19 111.095C397.193 110.613 397.322 110.141 397.565 109.724C397.807 109.307 398.154 108.961 398.571 108.72V102.81H383.381C383.015 102.81 382.663 102.955 382.404 103.214C382.146 103.473 382 103.824 382 104.191V156.667C382 157.033 382.146 157.384 382.404 157.643C382.663 157.902 383.015 158.048 383.381 158.048H438.619C438.985 158.048 439.337 157.902 439.596 157.643C439.854 157.384 440 157.033 440 156.667V104.191C440 103.824 439.854 103.473 439.596 103.214C439.337 102.955 438.985 102.81 438.619 102.81Z" fill="#D9D9D9"/>
<path d="M401.332 101.429C401.332 98.8649 402.351 96.4062 404.163 94.5933C405.976 92.7805 408.435 91.762 410.999 91.762C413.563 91.762 416.021 92.7805 417.834 94.5933C419.647 96.4062 420.666 98.8649 420.666 101.429V102.81H423.427V101.429C423.427 98.1324 422.118 94.9712 419.787 92.6404C417.456 90.3095 414.295 89.0001 410.999 89.0001C407.703 89.0001 404.541 90.3095 402.211 92.6404C399.88 94.9712 398.57 98.1324 398.57 101.429V102.81H401.332V101.429Z" fill="#D9D9D9"/>
</g>
<path opacity="0.1" d="M780 30H552.996V218H780V30Z" fill="#C4C4C4"/>
<rect x="552.996" y="235" width="100.646" height="19" rx="9.5" fill="#C4C4C4" fill-opacity="0.5"/>
<rect x="552.996" y="271" width="199.088" height="19" rx="9.5" fill="#EEEEEE"/>
<rect opacity="0.5" x="552.996" y="307" width="69.0562" height="19" rx="9.5" fill="#C4C4C4" fill-opacity="0.6"/>
<rect x="553.996" y="353" width="225.004" height="40" fill="#F5F5F5" fill-opacity="0.5"/>
<rect x="553.996" y="353" width="225.004" height="40" stroke="#E1E1E1" stroke-width="2"/>
<rect x="553.996" y="353" width="225.004" height="40" stroke="#E4E4E4" stroke-width="2"/>
<g clip-path="url(#clip2_513_8841)">
<path d="M694.619 102.81H679.429V108.72C679.846 108.961 680.193 109.307 680.435 109.724C680.678 110.141 680.807 110.613 680.81 111.095C680.81 111.828 680.518 112.53 680.001 113.048C679.483 113.566 678.78 113.857 678.048 113.857C677.315 113.857 676.613 113.566 676.095 113.048C675.577 112.53 675.286 111.828 675.286 111.095C675.289 110.613 675.418 110.141 675.66 109.724C675.902 109.307 676.249 108.961 676.667 108.72V102.81H657.333V108.72C657.751 108.961 658.098 109.307 658.34 109.724C658.582 110.141 658.711 110.613 658.714 111.095C658.714 111.828 658.423 112.53 657.905 113.048C657.387 113.566 656.685 113.857 655.952 113.857C655.22 113.857 654.517 113.566 653.999 113.048C653.482 112.53 653.19 111.828 653.19 111.095C653.193 110.613 653.322 110.141 653.565 109.724C653.807 109.307 654.154 108.961 654.571 108.72V102.81H639.381C639.015 102.81 638.663 102.955 638.404 103.214C638.146 103.473 638 103.824 638 104.191V156.667C638 157.033 638.146 157.384 638.404 157.643C638.663 157.902 639.015 158.048 639.381 158.048H694.619C694.985 158.048 695.337 157.902 695.596 157.643C695.854 157.384 696 157.033 696 156.667V104.191C696 103.824 695.854 103.473 695.596 103.214C695.337 102.955 694.985 102.81 694.619 102.81Z" fill="#D9D9D9"/>
<path d="M657.332 101.429C657.332 98.8649 658.351 96.4062 660.163 94.5933C661.976 92.7805 664.435 91.762 666.999 91.762C669.563 91.762 672.021 92.7805 673.834 94.5933C675.647 96.4062 676.666 98.8649 676.666 101.429V102.81H679.427V101.429C679.427 98.1324 678.118 94.9712 675.787 92.6404C673.456 90.3095 670.295 89.0001 666.999 89.0001C663.703 89.0001 660.541 90.3095 658.211 92.6404C655.88 94.9712 654.57 98.1324 654.57 101.429V102.81H657.332V101.429Z" fill="#D9D9D9"/>
</g>
<defs>
<clipPath id="clip0_513_8841">
<rect width="58" height="69.0476" fill="white" transform="translate(127 89)"/>
</clipPath>
<clipPath id="clip1_513_8841">
<rect width="58" height="69.0476" fill="white" transform="translate(382 89)"/>
</clipPath>
<clipPath id="clip2_513_8841">
<rect width="58" height="69.0476" fill="white" transform="translate(638 89)"/>
</clipPath>
</defs>
</svg>
