<svg width="821" height="424" viewBox="0 0 821 424" fill="none" xmlns="http://www.w3.org/2000/svg">
<rect x="1" y="1" width="819" height="422" fill="white" stroke="#C4C4C4" stroke-width="2"/>
<rect opacity="0.6" x="338" y="360" width="146" height="7" rx="3.5" fill="#C4C4C4"/>
<rect opacity="0.1" x="150" y="58" width="521" height="286" fill="#C4C4C4"/>
<path d="M439.667 175.917H382.333V226.083L415.63 192.78C416.301 192.108 417.213 191.731 418.163 191.731C419.113 191.731 420.024 192.108 420.696 192.78L439.667 211.786V175.917ZM375.167 172.308C375.173 171.367 375.55 170.466 376.215 169.801C376.88 169.135 377.78 168.758 378.721 168.75H443.279C445.242 168.75 446.833 170.345 446.833 172.308V229.692C446.827 230.633 446.45 231.534 445.785 232.199C445.12 232.865 444.22 233.242 443.279 233.25H378.721C377.778 233.249 376.874 232.874 376.207 232.207C375.541 231.539 375.167 230.635 375.167 229.692V172.308ZM396.667 197.417C394.766 197.417 392.943 196.662 391.599 195.318C390.255 193.974 389.5 192.151 389.5 190.25C389.5 188.349 390.255 186.526 391.599 185.182C392.943 183.838 394.766 183.083 396.667 183.083C398.567 183.083 400.39 183.838 401.734 185.182C403.078 186.526 403.833 188.349 403.833 190.25C403.833 192.151 403.078 193.974 401.734 195.318C400.39 196.662 398.567 197.417 396.667 197.417Z" fill="#C4C4C4" fill-opacity="0.6"/>
</svg>
