<svg width="821" height="424" viewBox="0 0 821 424" fill="none" xmlns="http://www.w3.org/2000/svg">
<path opacity="0.1" d="M790 33H481V390H790V33Z" fill="#C4C4C4"/>
<path d="M820 1H1V423H820V1Z" fill="white" stroke="#C4C4C4" stroke-width="2"/>
<path opacity="0.1" d="M361 33H52V221H361V33Z" fill="#C4C4C4"/>
<rect x="52" y="238" width="137" height="19" rx="9.5" fill="#C4C4C4" fill-opacity="0.5"/>
<rect x="52" y="274" width="271" height="19" rx="9.5" fill="#EEEEEE"/>
<rect opacity="0.5" x="52" y="310" width="94" height="19" rx="9.5" fill="#C4C4C4" fill-opacity="0.6"/>
<rect x="53" y="356" width="307" height="40" fill="#F5F5F5" fill-opacity="0.5" stroke="#E4E4E4" stroke-width="2"/>
<g clip-path="url(#clip0_495_8715)">
<path d="M234.619 105.81H219.429V111.72C219.846 111.961 220.193 112.307 220.435 112.724C220.678 113.141 220.807 113.613 220.81 114.095C220.81 114.828 220.518 115.53 220.001 116.048C219.483 116.566 218.78 116.857 218.048 116.857C217.315 116.857 216.613 116.566 216.095 116.048C215.577 115.53 215.286 114.828 215.286 114.095C215.289 113.613 215.418 113.141 215.66 112.724C215.902 112.307 216.249 111.961 216.667 111.72V105.81H197.333V111.72C197.751 111.961 198.098 112.307 198.34 112.724C198.582 113.141 198.711 113.613 198.714 114.095C198.714 114.828 198.423 115.53 197.905 116.048C197.387 116.566 196.685 116.857 195.952 116.857C195.22 116.857 194.517 116.566 193.999 116.048C193.482 115.53 193.19 114.828 193.19 114.095C193.193 113.613 193.322 113.141 193.565 112.724C193.807 112.307 194.154 111.961 194.571 111.72V105.81H179.381C179.015 105.81 178.663 105.955 178.404 106.214C178.146 106.473 178 106.824 178 107.191V159.667C178 160.033 178.146 160.384 178.404 160.643C178.663 160.902 179.015 161.048 179.381 161.048H234.619C234.985 161.048 235.337 160.902 235.596 160.643C235.854 160.384 236 160.033 236 159.667V107.191C236 106.824 235.854 106.473 235.596 106.214C235.337 105.955 234.985 105.81 234.619 105.81Z" fill="#D9D9D9"/>
<path d="M197.332 104.429C197.332 101.865 198.351 99.4062 200.163 97.5933C201.976 95.7805 204.435 94.762 206.999 94.762C209.563 94.762 212.021 95.7805 213.834 97.5933C215.647 99.4062 216.666 101.865 216.666 104.429V105.81H219.427V104.429C219.427 101.132 218.118 97.9712 215.787 95.6404C213.456 93.3095 210.295 92.0001 206.999 92.0001C203.703 92.0001 200.541 93.3095 198.211 95.6404C195.88 97.9712 194.57 101.132 194.57 104.429V105.81H197.332V104.429Z" fill="#D9D9D9"/>
</g>
<g opacity="0.8">
<g opacity="0.9">
<path opacity="0.4" d="M760.691 33H438.309C433.168 33 429 37.2533 429 42.5C429 47.7467 433.168 52 438.309 52H760.691C765.832 52 770 47.7467 770 42.5C770 37.2533 765.832 33 760.691 33Z" fill="#C4C4C4"/>
<path opacity="0.4" d="M760.691 69H438.309C433.168 69 429 73.2533 429 78.5C429 83.7467 433.168 88 438.309 88H760.691C765.832 88 770 83.7467 770 78.5C770 73.2533 765.832 69 760.691 69Z" fill="#C4C4C4"/>
<path opacity="0.4" d="M760.691 105H438.309C433.168 105 429 109.253 429 114.5C429 119.747 433.168 124 438.309 124H760.691C765.832 124 770 119.747 770 114.5C770 109.253 765.832 105 760.691 105Z" fill="#C4C4C4"/>
<path opacity="0.4" d="M760.691 141H438.309C433.168 141 429 145.253 429 150.5C429 155.747 433.168 160 438.309 160H760.691C765.832 160 770 155.747 770 150.5C770 145.253 765.832 141 760.691 141Z" fill="#C4C4C4"/>
<path opacity="0.4" d="M760.691 177H438.309C433.168 177 429 181.253 429 186.5C429 191.747 433.168 196 438.309 196H760.691C765.832 196 770 191.747 770 186.5C770 181.253 765.832 177 760.691 177Z" fill="#C4C4C4"/>
<path opacity="0.4" d="M760.691 213H438.309C433.168 213 429 217.253 429 222.5C429 227.747 433.168 232 438.309 232H760.691C765.832 232 770 227.747 770 222.5C770 217.253 765.832 213 760.691 213Z" fill="#C4C4C4"/>
<path opacity="0.4" d="M760.691 249H438.309C433.168 249 429 253.253 429 258.5C429 263.747 433.168 268 438.309 268H760.691C765.832 268 770 263.747 770 258.5C770 253.253 765.832 249 760.691 249Z" fill="#C4C4C4"/>
<path opacity="0.4" d="M760.691 285H438.309C433.168 285 429 289.253 429 294.5C429 299.747 433.168 304 438.309 304H760.691C765.832 304 770 299.747 770 294.5C770 289.253 765.832 285 760.691 285Z" fill="#C4C4C4"/>
<path opacity="0.4" d="M744.7 321H438.3C433.164 321 429 325.253 429 330.5C429 335.747 433.164 340 438.3 340H744.7C749.836 340 754 335.747 754 330.5C754 325.253 749.836 321 744.7 321Z" fill="#C4C4C4"/>
<path opacity="0.4" d="M643.099 357H437.901C432.985 357 429 361.253 429 366.5C429 371.747 432.985 376 437.901 376H643.099C648.015 376 652 371.747 652 366.5C652 361.253 648.015 357 643.099 357Z" fill="#C4C4C4"/>
</g>
</g>
<defs>
<clipPath id="clip0_495_8715">
<rect width="58" height="69.0476" fill="white" transform="translate(178 92)"/>
</clipPath>
</defs>
</svg>
