<svg width="821" height="424" viewBox="0 0 821 424" fill="none" xmlns="http://www.w3.org/2000/svg">
<path opacity="0.1" d="M790 33H481V390H790V33Z" fill="#C4C4C4"/>
<path d="M820 1H1V423H820V1Z" fill="white" stroke="#C4C4C4" stroke-width="2"/>
<rect x="60" y="73.8564" width="692" height="61" fill="white" stroke="#C4C4C4" stroke-width="2"/>
<rect x="60" y="185.856" width="692" height="61" fill="white" stroke="#C4C4C4" stroke-width="2"/>
<path opacity="0.4" d="M253.568 46H65.4325C62.4322 46 60 48.4322 60 51.4325C60 54.4327 62.4322 56.8649 65.4325 56.8649H253.568C256.568 56.8649 259 54.4327 259 51.4325C259 48.4322 256.568 46 253.568 46Z" fill="#C4C4C4"/>
<path opacity="0.4" d="M253.568 157.856H65.4325C62.4322 157.856 60 160.289 60 163.289C60 166.289 62.4322 168.721 65.4325 168.721H253.568C256.568 168.721 259 166.289 259 163.289C259 160.289 256.568 157.856 253.568 157.856Z" fill="#C4C4C4"/>
<rect x="60" y="282.856" width="43" height="43" fill="white" stroke="#C4C4C4" stroke-width="2"/>
<g opacity="0.5">
<path d="M79.6669 308.557L90.3909 297.832L92.0417 299.482L79.6669 311.856L72.2422 304.432L73.8919 302.782L79.6669 308.557Z" fill="black"/>
</g>
<path opacity="0.4" d="M320.568 288.856H132.432C129.432 288.856 127 291.289 127 294.289C127 297.289 129.432 299.721 132.432 299.721H320.568C323.568 299.721 326 297.289 326 294.289C326 291.289 323.568 288.856 320.568 288.856Z" fill="#C4C4C4"/>
<rect opacity="0.4" x="127" y="309.856" width="284" height="11" rx="5.5" fill="#C4C4C4"/>
<rect x="472.191" y="327.095" width="278.576" height="49.5238" fill="#F5F5F5" fill-opacity="0.5" stroke="#E4E4E4" stroke-width="2.47619"/>
</svg>
