<svg width="821" height="424" viewBox="0 0 821 424" fill="none" xmlns="http://www.w3.org/2000/svg">
<path opacity="0.1" d="M790 33H481V390H790V33Z" fill="#C4C4C4"/>
<path d="M820 1H1V423H820V1Z" fill="white" stroke="#C4C4C4" stroke-width="2"/>
<g opacity="0.7">
<path d="M411.001 143.667C429.567 143.667 431.884 143.735 439.168 144.077C446.446 144.418 451.4 145.559 455.76 147.254C460.27 148.99 464.069 151.34 467.868 155.133C471.343 158.549 474.032 162.681 475.747 167.242C477.435 171.594 478.583 176.555 478.925 183.833C479.246 191.117 479.335 193.434 479.335 212C479.335 230.566 479.266 232.883 478.925 240.167C478.583 247.444 477.435 252.399 475.747 256.758C474.037 261.321 471.347 265.455 467.868 268.867C464.451 272.34 460.32 275.029 455.76 276.746C451.407 278.434 446.446 279.582 439.168 279.923C431.884 280.244 429.567 280.333 411.001 280.333C392.435 280.333 390.119 280.265 382.834 279.923C375.557 279.582 370.603 278.434 366.243 276.746C361.681 275.034 357.548 272.345 354.134 268.867C350.659 265.452 347.97 261.319 346.255 256.758C344.561 252.405 343.42 247.444 343.078 240.167C342.757 232.883 342.668 230.566 342.668 212C342.668 193.434 342.736 191.117 343.078 183.833C343.42 176.549 344.561 171.601 346.255 167.242C347.965 162.678 350.655 158.545 354.134 155.133C357.549 151.656 361.681 148.967 366.243 147.254C370.603 145.559 375.55 144.418 382.834 144.077C390.119 143.755 392.435 143.667 411.001 143.667ZM411.001 177.833C401.94 177.833 393.249 181.433 386.842 187.84C380.434 194.248 376.835 202.938 376.835 212C376.835 221.062 380.434 229.752 386.842 236.159C393.249 242.567 401.94 246.167 411.001 246.167C420.063 246.167 428.753 242.567 435.161 236.159C441.568 229.752 445.168 221.062 445.168 212C445.168 202.938 441.568 194.248 435.161 187.84C428.753 181.433 420.063 177.833 411.001 177.833V177.833ZM455.418 176.125C455.418 173.86 454.518 171.687 452.916 170.085C451.314 168.483 449.142 167.583 446.876 167.583C444.611 167.583 442.438 168.483 440.836 170.085C439.235 171.687 438.335 173.86 438.335 176.125C438.335 178.39 439.235 180.563 440.836 182.165C442.438 183.767 444.611 184.667 446.876 184.667C449.142 184.667 451.314 183.767 452.916 182.165C454.518 180.563 455.418 178.39 455.418 176.125ZM411.001 191.5C416.438 191.5 421.652 193.66 425.497 197.504C429.341 201.349 431.501 206.563 431.501 212C431.501 217.437 429.341 222.651 425.497 226.496C421.652 230.34 416.438 232.5 411.001 232.5C405.564 232.5 400.35 230.34 396.506 226.496C392.661 222.651 390.501 217.437 390.501 212C390.501 206.563 392.661 201.349 396.506 197.504C400.35 193.66 405.564 191.5 411.001 191.5V191.5Z" fill="#D9D9D9"/>
</g>
</svg>
