<svg width="823" height="426" viewBox="0 0 823 426" fill="none" xmlns="http://www.w3.org/2000/svg">
<path d="M821 2H2V424H821V2Z" fill="#FFB800" stroke="#FFB800" stroke-width="3"/>
<path d="M156.865 312.486H104.214L90.148 347.27H71.5206L126.262 212.316H136.146L191.078 347.27H171.31L156.865 312.486ZM109.916 296.52H151.352L135.956 258.695L130.824 238.356H130.444L125.312 259.075L109.916 296.52ZM209.236 214.217H226.723V259.835H228.624C231.539 254.766 235.72 251.028 241.169 248.621C246.618 246.086 252.383 244.819 258.466 244.819C272.278 244.819 282.732 249.064 289.828 257.554C297.051 265.917 300.663 278.589 300.663 295.569C300.663 312.929 295.974 326.171 286.597 335.295C277.22 344.419 264.041 348.98 247.061 348.98C238.698 348.98 231.095 348.284 224.252 346.89C217.536 345.496 212.531 343.848 209.236 341.948V214.217ZM255.995 259.645C251.94 259.645 248.329 260.279 245.161 261.546C242.119 262.813 239.395 264.587 236.987 266.868C234.58 269.022 232.489 271.556 230.715 274.471C229.068 277.259 227.737 280.173 226.723 283.214V330.543C232.932 332.951 240.472 334.155 249.342 334.155C259.353 334.155 267.273 331.113 273.102 325.031C279.057 318.822 282.035 308.938 282.035 295.379C282.035 290.31 281.528 285.622 280.515 281.314C279.501 276.878 277.917 273.077 275.763 269.909C273.609 266.741 270.884 264.27 267.59 262.496C264.422 260.595 260.557 259.645 255.995 259.645ZM404.046 340.427C399.611 343.595 394.415 345.939 388.46 347.46C382.504 349.107 376.232 349.931 369.642 349.931C361.279 349.931 354.119 348.664 348.164 346.129C342.335 343.595 337.583 340.047 333.908 335.485C330.233 330.923 327.572 325.411 325.925 318.949C324.278 312.486 323.454 305.326 323.454 297.47C323.454 280.617 327.509 267.628 335.619 258.504C343.855 249.254 355.64 244.629 370.973 244.629C377.689 244.629 383.518 245.263 388.46 246.53C393.402 247.67 397.837 249.127 401.765 250.901L397.203 265.157C393.782 263.383 390.044 261.989 385.989 260.975C382.061 259.962 377.752 259.455 373.064 259.455C352.409 259.455 342.081 272.127 342.081 297.47C342.081 302.285 342.652 306.974 343.792 311.536C344.932 315.971 346.77 319.962 349.304 323.51C351.839 326.932 355.133 329.719 359.188 331.874C363.37 334.028 368.438 335.105 374.394 335.105C379.716 335.105 384.341 334.408 388.27 333.014C392.325 331.494 395.683 329.719 398.344 327.692L404.046 340.427Z" fill="white"/>
</svg>
