<svg width="823" height="426" viewBox="0 0 823 426" fill="none" xmlns="http://www.w3.org/2000/svg">
<path d="M821 2H2V424H821V2Z" fill="white" stroke="black" stroke-width="3"/>
<path d="M127.594 236.844L150.024 288.736H106.305L127.594 236.844ZM65.248 342.339V345H101.173V342.339H84.256L105.355 291.397H150.974L173.023 342.339H155.346V345H219.213V342.339H202.866L142.991 204.341H137.859L81.2147 342.339H65.248ZM255.858 304.323C255.858 300.141 256.048 295.643 256.428 290.827C256.935 286.012 257.886 281.577 259.28 277.522C260.674 273.467 262.764 270.108 265.552 267.447C268.34 264.786 272.078 263.456 276.767 263.456C280.062 263.456 282.786 264.153 284.94 265.547C287.095 266.94 288.869 269.221 290.263 272.389C291.657 275.557 292.607 279.803 293.114 285.125C293.747 290.32 294.064 296.72 294.064 304.323C294.064 310.532 293.874 316.171 293.494 321.24C293.241 326.182 292.544 330.427 291.403 333.975C290.389 337.524 288.805 340.248 286.651 342.149C284.624 344.05 281.836 345 278.288 345C272.965 345 268.784 343.669 265.742 341.008C262.828 338.22 260.61 334.799 259.09 330.744C257.569 326.562 256.618 322.127 256.238 317.438C255.985 312.623 255.858 308.251 255.858 304.323ZM232.668 210.613V342.339H220.123V345H255.478V330.934H255.858C257.886 336.256 260.674 340.375 264.222 343.289C267.897 346.077 272.585 347.471 278.288 347.471C284.497 347.471 290.136 346.267 295.205 343.86C300.274 341.452 304.582 338.284 308.13 334.356C311.805 330.3 314.656 325.675 316.684 320.48C318.711 315.284 319.725 309.835 319.725 304.133C319.725 299.698 318.901 294.946 317.254 289.877C315.733 284.808 313.262 280.119 309.841 275.811C306.546 271.502 302.301 267.954 297.106 265.166C291.91 262.252 285.637 260.795 278.288 260.795C272.585 260.795 267.96 262.125 264.412 264.786C260.864 267.447 258.139 271.439 256.238 276.761H255.858V207.952H220.123V210.613H232.668ZM333.558 304.133C333.558 310.596 334.445 316.171 336.219 320.86C338.12 325.548 340.527 329.54 343.442 332.835C346.483 336.003 349.778 338.537 353.326 340.438C356.874 342.339 360.359 343.86 363.781 345C367.329 346.014 370.56 346.647 373.475 346.901C376.516 347.281 378.86 347.471 380.508 347.471C386.59 347.471 391.596 346.647 395.524 345C399.579 343.353 402.874 341.388 405.408 339.108C407.942 336.7 409.843 334.165 411.11 331.504C412.504 328.716 413.518 326.182 414.152 323.901L411.491 322.951C411.237 324.091 410.54 325.929 409.4 328.463C408.386 330.871 406.802 333.342 404.648 335.876C402.493 338.284 399.642 340.438 396.094 342.339C392.546 344.113 388.174 345 382.979 345C377.53 345 373.221 343.733 370.053 341.198C366.885 338.664 364.477 335.369 362.83 331.314C361.183 327.259 360.169 322.761 359.789 317.819C359.409 312.876 359.219 307.934 359.219 302.992C359.219 297.67 359.409 292.665 359.789 287.976C360.296 283.161 361.246 278.979 362.64 275.431C364.161 271.756 366.252 268.841 368.913 266.687C371.574 264.533 375.185 263.456 379.747 263.456C383.042 263.456 385.766 264.216 387.921 265.737C390.202 267.131 391.342 269.095 391.342 271.629C391.342 272.136 391.152 273.023 390.772 274.29C390.518 275.557 390.202 276.888 389.821 278.282C389.568 279.676 389.251 281.006 388.871 282.274C388.618 283.541 388.491 284.428 388.491 284.935C388.491 288.356 389.695 290.637 392.102 291.778C394.637 292.791 397.361 293.298 400.276 293.298C404.204 293.298 407.245 292.475 409.4 290.827C411.554 289.053 412.631 286.075 412.631 281.893C412.631 278.725 411.807 275.874 410.16 273.34C408.639 270.679 406.422 268.461 403.507 266.687C400.719 264.786 397.361 263.329 393.433 262.315C389.505 261.301 385.133 260.795 380.317 260.795C372.714 260.795 365.998 262.188 360.169 264.976C354.467 267.764 349.588 271.312 345.533 275.621C341.605 279.803 338.627 284.428 336.599 289.497C334.572 294.565 333.558 299.444 333.558 304.133Z" fill="#242424"/>
</svg>
