<svg width="823" height="426" viewBox="0 0 823 426" fill="none" xmlns="http://www.w3.org/2000/svg">
<path d="M821 2H2V424H821V2Z" fill="#242424" stroke="#242424" stroke-width="3"/>
<path d="M185.304 338H140.826L138.164 307.777H103L89.504 338H71.0662L127.14 217.299H172.189L185.304 338ZM109.272 293.901H136.834L132.462 242.2L109.272 293.901ZM223.237 338H192.444L219.436 210.266H258.402L246.047 268.431H247.377C251.559 263.615 256.248 260.194 261.443 258.166C266.765 256.012 272.024 254.935 277.22 254.935C281.655 254.935 285.33 255.632 288.245 257.026C291.286 258.293 293.693 260.067 295.468 262.348C297.242 264.629 298.509 267.354 299.269 270.522C300.029 273.69 300.41 277.048 300.41 280.596C300.41 282.37 300.283 285.031 300.029 288.579C299.776 292.127 299.206 296.119 298.319 300.554C297.432 304.863 296.165 309.361 294.517 314.05C292.87 318.612 290.652 322.794 287.864 326.595C285.203 330.397 281.782 333.501 277.6 335.909C273.545 338.317 268.666 339.521 262.964 339.521C259.542 339.521 256.184 339.14 252.89 338.38C249.722 337.62 246.807 336.606 244.146 335.339C241.612 334.072 239.331 332.614 237.303 330.967C235.402 329.193 234.008 327.419 233.121 325.645H231.791L223.237 338ZM244.716 321.083C247.757 321.083 250.292 319.499 252.319 316.331C254.347 313.036 255.994 309.235 257.261 304.926C258.529 300.491 259.416 296.119 259.923 291.811C260.556 287.375 260.873 284.081 260.873 281.926C260.873 279.392 260.429 277.301 259.542 275.654C258.782 274.006 257.325 273.183 255.171 273.183C252.636 273.183 250.292 274.133 248.138 276.034C245.983 277.808 244.399 279.329 243.386 280.596L235.973 314.62C236.86 316.141 238 317.598 239.394 318.992C240.915 320.386 242.689 321.083 244.716 321.083ZM389.93 333.438C384.608 335.592 378.969 337.113 373.013 338C367.184 339.014 360.531 339.521 353.054 339.521C346.465 339.521 340.382 338.887 334.807 337.62C329.358 336.226 324.606 334.072 320.551 331.157C316.496 328.243 313.328 324.504 311.047 319.942C308.766 315.254 307.625 309.615 307.625 303.025C307.625 296.182 308.766 289.846 311.047 284.017C313.454 278.061 317.003 272.866 321.691 268.431C326.507 263.996 332.589 260.511 339.939 257.976C347.289 255.442 356.032 254.175 366.17 254.175C374.407 254.175 381.566 254.872 387.649 256.266C393.732 257.533 398.737 260.511 402.665 265.199L397.343 289.53H371.492C371.619 287.375 371.746 285.475 371.872 283.827C371.999 282.18 372.062 280.342 372.062 278.315C372.062 274.26 371.619 271.409 370.732 269.761C369.845 267.987 368.388 267.1 366.36 267.1C362.812 267.1 359.707 268.874 357.046 272.422C354.385 275.844 352.167 280.026 350.393 284.968C348.746 289.783 347.479 294.915 346.592 300.364C345.831 305.686 345.451 310.248 345.451 314.05C345.451 315.444 345.515 316.901 345.641 318.422C345.768 319.816 346.021 321.146 346.402 322.413C346.908 323.681 347.542 324.694 348.302 325.455C349.063 326.215 350.14 326.595 351.534 326.595C352.801 326.595 354.258 326.215 355.906 325.455C357.553 324.694 359.137 323.554 360.658 322.033C362.178 320.386 363.636 318.295 365.029 315.761C366.423 313.226 367.5 310.185 368.261 306.637H395.442L389.93 333.438Z" fill="white"/>
</svg>
