<svg width="821" height="424" viewBox="0 0 821 424" fill="none" xmlns="http://www.w3.org/2000/svg">
<g clip-path="url(#clip0_612_9354)">
<path d="M820 1H1V423H820V1Z" fill="white" stroke="black" stroke-width="3"/>
<rect x="60" y="104" width="701" height="8" rx="4" fill="black"/>
<rect x="60" y="123" width="701" height="8" rx="4" fill="black"/>
<rect x="60" y="142" width="701" height="8" rx="4" fill="black"/>
<rect x="60" y="161" width="701" height="8" rx="4" fill="black"/>
<rect x="60" y="180" width="701" height="8" rx="4" fill="black"/>
<rect x="60" y="199" width="701" height="8" rx="4" fill="black"/>
<rect x="60" y="218" width="701" height="8" rx="4" fill="black"/>
<rect x="60" y="237" width="701" height="8" rx="4" fill="black"/>
<rect x="60" y="256" width="701" height="8" rx="4" fill="black"/>
<rect x="60" y="275" width="701" height="8" rx="4" fill="black"/>
<rect x="60" y="294" width="701" height="8" rx="4" fill="black"/>
<rect x="60" y="313" width="213.824" height="7.9194" rx="3.9597" fill="black"/>
<path d="M1 52L820 52.0001" stroke="black" stroke-width="2"/>
<path d="M65.1211 36V16.6767H72.1975C73.5688 16.6767 74.7041 16.9032 75.6036 17.356C76.5031 17.8026 77.1762 18.4096 77.6228 19.177C78.0694 19.9381 78.2927 20.7967 78.2927 21.7528C78.2927 22.558 78.1448 23.2373 77.8492 23.7909C77.5536 24.3381 77.1573 24.7784 76.6604 25.1118C76.1697 25.4389 75.6288 25.6779 75.0375 25.8289V26.0176C75.6791 26.049 76.305 26.2566 76.9151 26.6403C77.5316 27.0177 78.0411 27.5555 78.4436 28.2537C78.8462 28.9519 79.0475 29.8011 79.0475 30.8012C79.0475 31.7888 78.8147 32.6757 78.3493 33.4619C77.8901 34.2419 77.1793 34.8615 76.2169 35.3207C75.2545 35.7736 74.0248 36 72.5278 36H65.1211ZM68.0366 33.4997H72.2447C73.6411 33.4997 74.6412 33.2292 75.2451 32.6882C75.8489 32.1473 76.1509 31.4711 76.1509 30.6597C76.1509 30.0495 75.9968 29.4897 75.6885 28.9802C75.3803 28.4707 74.94 28.065 74.3676 27.7631C73.8015 27.4611 73.1285 27.3102 72.3485 27.3102H68.0366V33.4997ZM68.0366 25.0363H71.9428C72.5969 25.0363 73.1851 24.9105 73.7072 24.6589C74.2355 24.4073 74.6538 24.055 74.962 23.6021C75.2765 23.143 75.4338 22.602 75.4338 21.9793C75.4338 21.1804 75.1539 20.5105 74.5941 19.9696C74.0342 19.4286 73.1756 19.1582 72.0183 19.1582H68.0366V25.0363Z" fill="black"/>
<path d="M157.503 17.7247H159.815V27.7715C159.815 28.8406 159.564 29.7878 159.062 30.6132C158.56 31.4337 157.854 32.0801 156.944 32.5525C156.034 33.0199 154.967 33.2536 153.744 33.2536C152.526 33.2536 151.462 33.0199 150.552 32.5525C149.642 32.0801 148.936 31.4337 148.434 30.6132C147.931 29.7878 147.68 28.8406 147.68 27.7715V17.7247H149.985V27.585C149.985 28.2762 150.137 28.8903 150.44 29.4273C150.748 29.9643 151.183 30.387 151.745 30.6953C152.307 30.9986 152.973 31.1503 153.744 31.1503C154.52 31.1503 155.189 30.9986 155.75 30.6953C156.317 30.387 156.75 29.9643 157.048 29.4273C157.352 28.8903 157.503 28.2762 157.503 27.585V17.7247Z" fill="black"/>
<path d="M146 37.1768H161.492V38.6089H146V37.1768Z" fill="black"/>
<path d="M105.688 37L105.886 36.487L107.768 36.1735C108.338 36.0785 108.775 35.9835 109.079 35.8885C109.383 35.7745 109.62 35.613 109.791 35.404C109.962 35.195 110.124 34.891 110.276 34.492L115.976 20.3275C116.223 19.7195 116.27 19.3205 116.118 19.1305C115.985 18.9405 115.558 18.779 114.836 18.646L113.24 18.3325L113.439 17.8195H123.129L122.93 18.3325L121.049 18.646C120.498 18.741 120.061 18.8455 119.738 18.9595C119.434 19.0545 119.196 19.2065 119.025 19.4155C118.873 19.6245 118.712 19.9285 118.541 20.3275L112.841 34.492C112.594 35.081 112.537 35.4705 112.67 35.6605C112.822 35.8505 113.259 36.0215 113.981 36.1735L115.577 36.487L115.377 37H105.688Z" fill="black"/>
<path d="M244.387 18.4194H227.226C226.549 18.4194 226 18.9682 226 19.6452C226 20.3222 226.549 20.871 227.226 20.871H244.387C245.064 20.871 245.613 20.3222 245.613 19.6452C245.613 18.9682 245.064 18.4194 244.387 18.4194Z" fill="black"/>
<path d="M237.032 23.3226H227.226C226.549 23.3226 226 23.8714 226 24.5484C226 25.2254 226.549 25.7742 227.226 25.7742H237.032C237.709 25.7742 238.258 25.2254 238.258 24.5484C238.258 23.8714 237.709 23.3226 237.032 23.3226Z" fill="black"/>
<path d="M244.387 28.2258H227.226C226.549 28.2258 226 28.7746 226 29.4516C226 30.1286 226.549 30.6774 227.226 30.6774H244.387C245.064 30.6774 245.613 30.1286 245.613 29.4516C245.613 28.7746 245.064 28.2258 244.387 28.2258Z" fill="black"/>
<path d="M237.032 33.129H227.226C226.549 33.129 226 33.6778 226 34.3548C226 35.0318 226.549 35.5806 227.226 35.5806H237.032C237.709 35.5806 238.258 35.0318 238.258 34.3548C238.258 33.6778 237.709 33.129 237.032 33.129Z" fill="black"/>
<path d="M288.516 18.4194H271.355C270.678 18.4194 270.129 18.9682 270.129 19.6452C270.129 20.3222 270.678 20.871 271.355 20.871H288.516C289.193 20.871 289.742 20.3222 289.742 19.6452C289.742 18.9682 289.193 18.4194 288.516 18.4194Z" fill="black"/>
<path d="M284.837 23.3227H275.031C274.354 23.3227 273.805 23.8715 273.805 24.5485C273.805 25.2255 274.354 25.7743 275.031 25.7743H284.837C285.514 25.7743 286.063 25.2255 286.063 24.5485C286.063 23.8715 285.514 23.3227 284.837 23.3227Z" fill="black"/>
<path d="M288.516 28.2259H271.355C270.678 28.2259 270.129 28.7747 270.129 29.4517C270.129 30.1287 270.678 30.6775 271.355 30.6775H288.516C289.193 30.6775 289.742 30.1287 289.742 29.4517C289.742 28.7747 289.193 28.2259 288.516 28.2259Z" fill="black"/>
<path d="M284.837 33.1291H275.031C274.354 33.1291 273.805 33.6779 273.805 34.3549C273.805 35.0319 274.354 35.5807 275.031 35.5807H284.837C285.514 35.5807 286.063 35.0319 286.063 34.3549C286.063 33.6779 285.514 33.1291 284.837 33.1291Z" fill="black"/>
<path d="M332.645 18.4194H315.484C314.807 18.4194 314.258 18.9682 314.258 19.6452C314.258 20.3222 314.807 20.871 315.484 20.871H332.645C333.322 20.871 333.871 20.3222 333.871 19.6452C333.871 18.9682 333.322 18.4194 332.645 18.4194Z" fill="black"/>
<path d="M332.646 23.3227H322.839C322.162 23.3227 321.613 23.8715 321.613 24.5485C321.613 25.2255 322.162 25.7743 322.839 25.7743H332.646C333.323 25.7743 333.871 25.2255 333.871 24.5485C333.871 23.8715 333.323 23.3227 332.646 23.3227Z" fill="black"/>
<path d="M332.645 28.2259H315.484C314.807 28.2259 314.258 28.7747 314.258 29.4517C314.258 30.1287 314.807 30.6775 315.484 30.6775H332.645C333.322 30.6775 333.871 30.1287 333.871 29.4517C333.871 28.7747 333.322 28.2259 332.645 28.2259Z" fill="black"/>
<path d="M332.646 33.1291H322.839C322.162 33.1291 321.613 33.6779 321.613 34.3549C321.613 35.0319 322.162 35.5807 322.839 35.5807H332.646C333.323 35.5807 333.871 35.0319 333.871 34.3549C333.871 33.6779 333.323 33.1291 332.646 33.1291Z" fill="black"/>
<path d="M376.774 18.4194H359.613C358.936 18.4194 358.387 18.9682 358.387 19.6452C358.387 20.3222 358.936 20.871 359.613 20.871H376.774C377.451 20.871 378 20.3222 378 19.6452C378 18.9682 377.451 18.4194 376.774 18.4194Z" fill="black"/>
<path d="M376.774 23.3227H359.613C358.936 23.3227 358.387 23.8715 358.387 24.5485C358.387 25.2255 358.936 25.7743 359.613 25.7743H376.774C377.451 25.7743 378 25.2255 378 24.5485C378 23.8715 377.451 23.3227 376.774 23.3227Z" fill="black"/>
<path d="M376.774 28.2259H359.613C358.936 28.2259 358.387 28.7747 358.387 29.4517C358.387 30.1287 358.936 30.6775 359.613 30.6775H376.774C377.451 30.6775 378 30.1287 378 29.4517C378 28.7747 377.451 28.2259 376.774 28.2259Z" fill="black"/>
<path d="M376.774 33.1291H359.613C358.936 33.1291 358.387 33.6779 358.387 34.3549C358.387 35.0319 358.936 35.5807 359.613 35.5807H376.774C377.451 35.5807 378 35.0319 378 34.3549C378 33.6779 377.451 33.1291 376.774 33.1291Z" fill="black"/>
<path opacity="0.2" d="M196 51V1" stroke="black" stroke-width="2"/>
</g>
<defs>
<clipPath id="clip0_612_9354">
<rect width="821" height="424" fill="white"/>
</clipPath>
</defs>
</svg>
