<svg width="821" height="424" viewBox="0 0 821 424" fill="none" xmlns="http://www.w3.org/2000/svg">
<path d="M820 1H1V423H820V1Z" fill="white" stroke="#C4C4C4" stroke-width="2"/>
<g clip-path="url(#clip0_614_9355)">
<path d="M443.378 222.125V232.75H454.003V239.833H443.378V250.458H436.294V239.833H425.669V232.75H436.294V222.125H443.378ZM443.406 179.625C445.347 179.625 446.919 181.201 446.919 183.142V215.042H439.836V186.708H383.169V236.288L418.586 200.875L429.211 211.5V221.519L418.586 210.894L393.182 236.292H418.586V243.375H379.599C378.667 243.374 377.774 243.003 377.115 242.344C376.456 241.684 376.086 240.79 376.086 239.858V183.142C376.092 182.212 376.465 181.322 377.122 180.663C377.779 180.005 378.669 179.632 379.599 179.625H443.406ZM397.336 193.792C399.215 193.792 401.016 194.538 402.345 195.866C403.673 197.195 404.419 198.996 404.419 200.875C404.419 202.754 403.673 204.555 402.345 205.884C401.016 207.212 399.215 207.958 397.336 207.958C395.457 207.958 393.656 207.212 392.327 205.884C390.999 204.555 390.253 202.754 390.253 200.875C390.253 198.996 390.999 197.195 392.327 195.866C393.656 194.538 395.457 193.792 397.336 193.792V193.792Z" fill="black"/>
</g>
<path d="M745.418 212L730.98 197.562L735.105 193.438L753.666 212L735.105 230.562L730.98 226.437L745.418 212Z" fill="black"/>
<path d="M57.5804 212L72.0179 226.438L67.8937 230.562L49.332 212L67.8937 193.438L72.0179 197.563L57.5804 212Z" fill="black"/>
<rect x="1.5" y="1.5" width="818" height="421" stroke="black" stroke-width="3"/>
<path d="M152 71H669V353H152V71Z" stroke="black" stroke-width="4"/>
<defs>
<clipPath id="clip0_614_9355">
<rect width="85" height="85" fill="white" transform="translate(369 169)"/>
</clipPath>
</defs>
</svg>
