<svg width="823" height="426" viewBox="0 0 823 426" fill="none" xmlns="http://www.w3.org/2000/svg">
<path d="M821 2H2V424H821V2Z" stroke="black" stroke-width="3"/>
<g clip-path="url(#clip0_611_9318)">
<path d="M673.378 218.125V228.75H684.003V235.833H673.378V246.458H666.294V235.833H655.669V228.75H666.294V218.125H673.378ZM673.406 175.625C675.347 175.625 676.919 177.201 676.919 179.142V211.042H669.836V182.708H613.169V232.288L648.586 196.875L659.211 207.5V217.519L648.586 206.894L623.182 232.292H648.586V239.375H609.599C608.667 239.374 607.774 239.003 607.115 238.344C606.456 237.684 606.086 236.79 606.086 235.858V179.142C606.092 178.212 606.465 177.322 607.122 176.663C607.779 176.005 608.669 175.632 609.599 175.625H673.406ZM627.336 189.792C629.215 189.792 631.016 190.538 632.345 191.866C633.673 193.195 634.419 194.996 634.419 196.875C634.419 198.754 633.673 200.555 632.345 201.884C631.016 203.212 629.215 203.958 627.336 203.958C625.457 203.958 623.656 203.212 622.327 201.884C620.999 200.555 620.253 198.754 620.253 196.875C620.253 194.996 620.999 193.195 622.327 191.866C623.656 190.538 625.457 189.792 627.336 189.792V189.792Z" fill="black"/>
</g>
<rect x="60" y="174.529" width="412" height="8" rx="4" fill="black"/>
<rect x="60" y="193.843" width="412" height="8" rx="4" fill="black"/>
<rect x="60" y="213.156" width="412" height="8" rx="4" fill="black"/>
<rect x="60" y="232.469" width="412" height="8" rx="4" fill="black"/>
<rect x="60" y="251.783" width="412" height="8" rx="4" fill="black"/>
<rect x="60" y="271.096" width="412" height="8" rx="4" fill="black"/>
<rect x="60" y="290.41" width="412" height="8" rx="4" fill="black"/>
<rect x="60" y="309.723" width="412" height="8" rx="4" fill="black"/>
<rect x="60" y="329.037" width="213.824" height="7.9194" rx="3.9597" fill="black"/>
<rect x="60" y="89" width="265" height="19.3269" rx="9.66345" fill="black"/>
<rect x="60" y="122.822" width="148.449" height="19.3269" rx="9.66345" fill="black"/>
<defs>
<clipPath id="clip0_611_9318">
<rect width="85" height="85" fill="white" transform="translate(599 165)"/>
</clipPath>
</defs>
</svg>
