<svg width="821" height="424" viewBox="0 0 821 424" fill="none" xmlns="http://www.w3.org/2000/svg">
<g clip-path="url(#clip0_612_9353)">
<path d="M820 1H1V423H820V1Z" fill="white" stroke="black" stroke-width="3"/>
<rect x="319" y="359" width="183" height="8" rx="4" fill="black"/>
<path d="M152 60H669V342H152V60Z" stroke="black" stroke-width="4"/>
<g clip-path="url(#clip1_612_9353)">
<path d="M443.378 212.125V222.75H454.003V229.833H443.378V240.458H436.294V229.833H425.669V222.75H436.294V212.125H443.378ZM443.406 169.625C445.347 169.625 446.919 171.201 446.919 173.142V205.042H439.836V176.708H383.169V226.288L418.586 190.875L429.211 201.5V211.519L418.586 200.894L393.182 226.292H418.586V233.375H379.599C378.667 233.374 377.774 233.003 377.115 232.344C376.456 231.684 376.086 230.79 376.086 229.858V173.142C376.092 172.212 376.465 171.322 377.122 170.663C377.779 170.005 378.669 169.632 379.599 169.625H443.406ZM397.336 183.792C399.215 183.792 401.016 184.538 402.345 185.866C403.673 187.195 404.419 188.996 404.419 190.875C404.419 192.754 403.673 194.555 402.345 195.884C401.016 197.212 399.215 197.958 397.336 197.958C395.457 197.958 393.656 197.212 392.327 195.884C390.999 194.555 390.253 192.754 390.253 190.875C390.253 188.996 390.999 187.195 392.327 185.866C393.656 184.538 395.457 183.792 397.336 183.792V183.792Z" fill="black"/>
</g>
</g>
<defs>
<clipPath id="clip0_612_9353">
<rect width="821" height="424" fill="white"/>
</clipPath>
<clipPath id="clip1_612_9353">
<rect width="85" height="85" fill="white" transform="translate(369 159)"/>
</clipPath>
</defs>
</svg>
