<svg width="821" height="424" viewBox="0 0 821 424" fill="none" xmlns="http://www.w3.org/2000/svg">
<path opacity="0.1" d="M790 33H481V390H790V33Z" fill="black"/>
<path d="M820 1H1V423H820V1Z" fill="white" stroke="black" stroke-width="2"/>
<rect x="1.5" y="1.5" width="818" height="421" stroke="black" stroke-width="3"/>
<g clip-path="url(#clip0_611_9315)">
<path d="M251.142 175.347C243.888 178.381 235.883 186.993 233.368 197.773C230.16 211.443 243.483 217.222 244.553 215.315C245.824 213.09 242.154 212.338 241.402 205.229C240.449 196.097 244.726 185.866 250.072 181.387C251.055 180.549 251.026 181.705 251.026 183.872C251.026 187.716 250.824 222.193 250.824 229.389C250.824 239.128 250.419 242.192 249.697 245.255C248.974 248.347 247.789 250.428 248.685 251.209C249.668 252.104 253.945 249.966 256.401 246.527C259.349 242.394 260.39 237.452 260.563 232.077C260.794 225.603 260.765 215.315 260.794 209.448C260.794 204.073 260.881 188.323 260.707 178.844C260.65 176.503 254.205 174.075 251.142 175.347ZM509.245 220.922C509.014 225.979 507.887 229.938 506.5 232.742C503.812 238.146 498.205 239.822 495.836 232.048C494.535 227.829 494.477 220.748 495.402 214.824C496.356 208.813 498.986 204.246 503.379 204.68C507.714 205.085 509.708 210.633 509.245 220.922ZM436.505 252.336C436.447 260.745 435.117 268.115 432.285 270.253C428.268 273.288 422.835 271.005 423.962 264.878C424.945 259.445 429.655 253.896 436.505 247.134C436.505 247.134 436.533 248.665 436.505 252.336ZM435.406 220.893C435.175 225.517 433.961 230.141 432.661 232.742C429.973 238.146 424.338 239.822 421.997 232.048C420.407 226.73 420.783 219.852 421.563 215.517C422.575 209.882 425.06 204.68 429.54 204.68C433.875 204.68 436.013 209.448 435.406 220.893ZM393.271 220.806C393.01 225.69 392.057 229.765 390.525 232.742C387.751 238.117 382.289 239.822 379.861 232.048C378.127 226.47 378.705 218.841 379.428 214.708C380.497 208.581 383.185 204.275 387.404 204.68C391.71 205.113 393.82 210.633 393.271 220.806ZM586.379 226.499C585.309 226.499 584.847 227.597 584.442 229.418C583.055 235.776 581.61 237.221 579.732 237.221C577.651 237.221 575.772 234.071 575.281 227.771C574.905 222.8 574.963 213.697 575.455 204.593C575.541 202.715 575.05 200.894 570.021 199.073C567.854 198.293 564.733 197.137 563.172 200.894C558.779 211.529 557.045 219.968 556.641 223.378C556.612 223.552 556.41 223.58 556.352 223.176C556.092 220.43 555.514 215.431 555.456 204.969C555.456 202.917 555.022 201.183 552.739 199.767C551.265 198.842 546.844 197.195 545.225 199.16C543.838 200.75 542.22 205.027 540.573 210.113C539.214 214.246 538.261 217.02 538.261 217.02C538.261 217.02 538.289 205.894 538.289 201.674C538.289 200.085 537.191 199.565 536.873 199.449C535.399 199.016 532.481 198.293 531.238 198.293C529.706 198.293 529.331 199.16 529.331 200.403C529.331 200.576 529.099 215.055 529.099 225.199C529.099 225.632 529.099 226.124 529.099 226.644C528.261 231.297 525.516 237.626 522.51 237.626C519.534 237.626 518.117 234.967 518.117 222.916C518.117 215.864 518.32 212.801 518.435 207.714C518.493 204.767 518.609 202.512 518.609 202.021C518.58 200.461 515.863 199.651 514.621 199.362C513.349 199.073 512.251 198.958 511.384 199.016C510.17 199.073 509.303 199.883 509.303 200.981C509.303 201.559 509.303 202.686 509.303 202.686C507.742 200.229 505.199 198.495 503.523 198.004C499.015 196.646 494.275 197.86 490.72 202.83C487.888 206.79 486.183 211.269 485.519 217.714C485.027 222.424 485.201 227.193 486.068 231.239C485.027 235.805 483.062 237.655 480.923 237.655C477.802 237.655 475.548 232.568 475.808 223.812C475.982 218.032 477.138 213.986 478.409 208.119C478.958 205.634 478.496 204.304 477.427 203.062C476.415 201.906 474.277 201.328 471.184 202.05C468.988 202.57 465.838 203.119 462.977 203.553C462.977 203.553 463.15 202.859 463.295 201.646C464.046 195.259 457.081 195.779 454.885 197.802C453.555 199.016 452.66 200.461 452.313 203.033C451.764 207.136 455.116 209.073 455.116 209.073C454.018 214.101 451.33 220.662 448.556 225.401C447.082 227.944 445.926 229.823 444.452 231.846C444.452 231.094 444.452 230.343 444.452 229.62C444.423 219.043 444.568 210.749 444.625 207.743C444.683 204.796 444.799 202.599 444.799 202.108C444.77 200.952 444.105 200.518 442.718 199.969C441.475 199.478 440.03 199.16 438.528 199.045C436.62 198.813 435.464 199.825 435.493 201.01C435.493 201.241 435.493 202.628 435.493 202.628C433.932 200.172 431.389 198.438 429.713 197.946C425.205 196.617 420.465 197.802 416.911 202.773C414.078 206.732 412.229 212.281 411.709 217.598C411.217 222.569 411.304 226.759 411.969 230.314C411.246 233.869 409.194 237.597 406.853 237.597C403.877 237.597 402.172 234.938 402.172 222.887C402.172 215.835 402.374 212.772 402.49 207.686C402.547 204.738 402.663 202.484 402.663 201.992C402.634 200.432 399.918 199.623 398.675 199.334C397.345 199.016 396.218 198.929 395.351 198.987C394.195 199.073 393.386 200.114 393.386 200.865V202.657C391.826 200.201 389.282 198.467 387.606 197.975C383.098 196.646 378.387 197.831 374.804 202.801C372.463 206.038 370.584 209.622 369.602 217.569C369.313 219.852 369.197 222.02 369.226 224.014C368.301 229.707 364.169 236.296 360.816 236.296C358.851 236.296 356.972 232.482 356.972 224.332C356.972 213.465 357.637 198.033 357.753 196.53C357.753 196.53 362.001 196.472 362.839 196.444C364.949 196.415 366.885 196.472 369.717 196.328C371.133 196.27 372.492 191.155 371.047 190.548C370.382 190.259 365.7 189.999 363.822 189.97C362.261 189.941 357.897 189.623 357.897 189.623C357.897 189.623 358.302 179.364 358.389 178.295C358.475 177.399 357.29 176.936 356.626 176.647C355.007 175.954 353.533 175.636 351.799 175.26C349.401 174.769 348.331 175.26 348.129 177.254C347.811 180.317 347.638 189.276 347.638 189.276C345.875 189.276 339.893 188.93 338.159 188.93C336.54 188.93 334.777 195.923 337.032 196.01C339.633 196.097 344.141 196.183 347.118 196.299C347.118 196.299 346.973 212.021 346.973 216.847C346.973 217.367 346.973 217.858 346.973 218.35C345.326 226.933 339.517 231.557 339.517 231.557C340.76 225.892 338.217 221.615 333.622 218.003C331.945 216.673 328.593 214.159 324.865 211.385C324.865 211.385 327.032 209.246 328.94 204.969C330.298 201.934 330.356 198.467 327.032 197.686C321.541 196.415 316.975 200.461 315.646 204.767C314.605 208.119 315.155 210.604 317.206 213.176C317.351 213.35 317.524 213.552 317.698 213.754C316.455 216.153 314.75 219.361 313.305 221.875C309.288 228.811 306.253 234.302 303.97 234.302C302.15 234.302 302.15 228.725 302.15 223.494C302.15 218.985 302.468 212.223 302.757 205.229C302.843 202.917 301.687 201.588 299.751 200.403C298.566 199.68 296.052 198.235 294.607 198.235C292.41 198.235 286.139 198.524 280.186 215.749C279.434 217.916 277.961 221.875 277.961 221.875L278.076 201.183C278.076 200.692 277.816 200.229 277.238 199.912C276.227 199.362 273.568 198.264 271.169 198.264C270.042 198.264 269.464 198.784 269.464 199.854L269.204 232.221C269.204 234.678 269.262 237.539 269.522 238.811C269.753 240.053 270.158 241.094 270.649 241.701C271.14 242.307 271.689 242.77 272.614 242.972C273.481 243.146 278.192 243.752 278.452 241.961C278.741 239.793 278.77 237.452 281.226 228.725C285.07 215.142 290.127 208.524 292.468 206.183C292.873 205.778 293.364 205.749 293.335 206.414C293.22 209.391 292.873 216.818 292.642 223.147C292.006 240.053 295.069 243.203 299.462 243.203C302.814 243.203 307.554 239.851 312.64 231.412C315.819 226.152 318.883 220.979 321.108 217.251C322.64 218.667 324.374 220.199 326.108 221.846C330.125 225.661 331.454 229.274 330.558 232.713C329.893 235.343 327.379 238.03 322.9 235.4C321.599 234.62 321.021 234.042 319.721 233.175C319.027 232.713 317.929 232.568 317.293 233.06C315.617 234.331 314.663 235.949 314.114 237.915C313.594 239.851 315.53 240.891 317.524 241.787C319.258 242.568 322.986 243.261 325.356 243.348C334.604 243.666 342.031 238.868 347.204 226.557C348.129 237.192 352.06 243.232 358.909 243.232C363.475 243.232 368.07 237.337 370.064 231.528C370.642 233.898 371.48 235.949 372.578 237.683C377.838 246.036 388.069 244.244 393.184 237.134C394.773 234.938 395.005 234.158 395.005 234.158C395.756 240.834 401.131 243.174 404.224 243.174C407.692 243.174 411.246 241.556 413.732 235.921C414.021 236.527 414.338 237.105 414.685 237.655C419.945 246.007 430.176 244.186 435.291 237.105C435.522 236.788 435.753 236.47 435.927 236.21L436.071 240.602C436.071 240.602 433.152 243.29 431.36 244.937C423.442 252.191 417.431 257.711 416.997 264.098C416.419 272.276 423.066 275.311 428.066 275.716C433.383 276.149 437.95 273.201 440.753 269.069C443.209 265.456 444.828 257.653 444.712 249.937C444.654 246.845 444.596 242.943 444.539 238.724C447.313 235.487 450.434 231.412 453.324 226.644C456.474 221.442 459.827 214.448 461.561 209.015C461.561 209.015 464.48 209.044 467.601 208.842C468.612 208.784 468.901 208.986 468.699 209.709C468.468 210.604 464.769 224.939 468.15 234.505C470.462 241.036 475.722 243.146 478.814 243.146C482.455 243.146 485.923 240.4 487.802 236.325C488.033 236.788 488.264 237.221 488.524 237.626C493.784 245.978 503.957 244.157 509.13 237.077C510.286 235.487 510.95 234.1 510.95 234.1C512.048 241.036 517.453 243.174 520.516 243.174C523.724 243.174 526.787 241.845 529.244 236.007C529.359 238.579 529.504 240.689 529.764 241.354C529.909 241.758 530.833 242.279 531.498 242.51C534.446 243.608 537.422 243.088 538.55 242.857C539.33 242.712 539.908 242.076 539.995 240.487C540.197 236.296 540.081 229.274 541.353 224.072C543.491 215.315 545.457 211.905 546.41 210.229C546.93 209.275 547.537 209.131 547.566 210.113C547.624 212.136 547.711 218.061 548.52 226.008C549.127 231.875 549.936 235.314 550.543 236.412C552.306 239.533 554.502 239.678 556.294 239.678C557.421 239.678 559.791 239.36 559.589 237.366C559.473 236.383 559.675 230.401 561.756 221.76C563.114 216.124 565.397 211.038 566.235 209.188C566.553 208.495 566.669 209.044 566.669 209.159C566.496 213.032 566.12 225.719 567.68 232.655C569.819 242.047 576.033 243.117 578.171 243.117C582.766 243.117 586.552 239.62 587.824 230.372C588.199 228.233 587.737 226.499 586.379 226.499Z" fill="#262626"/>
</g>
<defs>
<clipPath id="clip0_611_9315">
<rect width="355.12" height="100.744" fill="white" transform="translate(232.879 175)"/>
</clipPath>
</defs>
</svg>
