<svg width="823" height="426" viewBox="0 0 823 426" fill="none" xmlns="http://www.w3.org/2000/svg">
<path d="M821 2H2V424H821V2Z" fill="white" stroke="black" stroke-width="3"/>
<path d="M44.5 32.5H268.504V217.5H44.5V32.5Z" stroke="black" stroke-width="3"/>
<rect x="43" y="242" width="124.402" height="9.98851" rx="4.99425" fill="black"/>
<rect x="43" y="264.701" width="206.126" height="7.26437" rx="3.63218" fill="black"/>
<rect x="43" y="281.046" width="206.126" height="7.26437" rx="3.63218" fill="black"/>
<rect x="43" y="297.391" width="206.126" height="7.26437" rx="3.63218" fill="black"/>
<rect x="43" y="313.736" width="26.4026" height="7.26437" rx="3.63218" fill="black"/>
<rect x="44.5" y="354.5" width="224.004" height="39" fill="#F5F5F5" fill-opacity="0.5"/>
<rect x="44.5" y="354.5" width="224.004" height="39" stroke="#E1E1E1" stroke-width="3"/>
<rect x="44.5" y="354.5" width="224.004" height="39" stroke="black" stroke-width="3"/>
<path d="M144.5 115V110C144.5 106.685 145.817 103.505 148.161 101.161C150.505 98.817 153.685 97.5 157 97.5C160.315 97.5 163.495 98.817 165.839 101.161C168.183 103.505 169.5 106.685 169.5 110V115H177C177.663 115 178.299 115.263 178.768 115.732C179.237 116.201 179.5 116.837 179.5 117.5V147.5C179.5 148.163 179.237 148.799 178.768 149.268C178.299 149.737 177.663 150 177 150H137C136.337 150 135.701 149.737 135.232 149.268C134.763 148.799 134.5 148.163 134.5 147.5V117.5C134.5 116.837 134.763 116.201 135.232 115.732C135.701 115.263 136.337 115 137 115H144.5ZM144.5 120H139.5V145H174.5V120H169.5V125H164.5V120H149.5V125H144.5V120ZM149.5 115H164.5V110C164.5 108.011 163.71 106.103 162.303 104.697C160.897 103.29 158.989 102.5 157 102.5C155.011 102.5 153.103 103.29 151.697 104.697C150.29 106.103 149.5 108.011 149.5 110V115Z" fill="black"/>
<path d="M299.508 32.5H523.512V217.5H299.508V32.5Z" stroke="black" stroke-width="3"/>
<rect x="298.004" y="242" width="124.402" height="9.98851" rx="4.99425" fill="black"/>
<rect x="298.004" y="264.701" width="206.126" height="7.26437" rx="3.63218" fill="black"/>
<rect x="298.004" y="281.046" width="206.126" height="7.26437" rx="3.63218" fill="black"/>
<rect x="298.004" y="297.391" width="206.126" height="7.26437" rx="3.63218" fill="black"/>
<rect x="298.004" y="313.736" width="26.4026" height="7.26437" rx="3.63218" fill="black"/>
<rect x="299.508" y="354.5" width="224.004" height="39" fill="#F5F5F5" fill-opacity="0.5"/>
<rect x="299.508" y="354.5" width="224.004" height="39" stroke="#E1E1E1" stroke-width="3"/>
<rect x="299.508" y="354.5" width="224.004" height="39" stroke="black" stroke-width="3"/>
<path d="M399.5 115V110C399.5 106.685 400.817 103.505 403.161 101.161C405.505 98.817 408.685 97.5 412 97.5C415.315 97.5 418.495 98.817 420.839 101.161C423.183 103.505 424.5 106.685 424.5 110V115H432C432.663 115 433.299 115.263 433.768 115.732C434.237 116.201 434.5 116.837 434.5 117.5V147.5C434.5 148.163 434.237 148.799 433.768 149.268C433.299 149.737 432.663 150 432 150H392C391.337 150 390.701 149.737 390.232 149.268C389.763 148.799 389.5 148.163 389.5 147.5V117.5C389.5 116.837 389.763 116.201 390.232 115.732C390.701 115.263 391.337 115 392 115H399.5ZM399.5 120H394.5V145H429.5V120H424.5V125H419.5V120H404.5V125H399.5V120ZM404.5 115H419.5V110C419.5 108.011 418.71 106.103 417.303 104.697C415.897 103.29 413.989 102.5 412 102.5C410.011 102.5 408.103 103.29 406.697 104.697C405.29 106.103 404.5 108.011 404.5 110V115Z" fill="black"/>
<path d="M554.523 32.5H778.527V217.5H554.523V32.5Z" stroke="black" stroke-width="3"/>
<rect x="554.523" y="354.5" width="224.004" height="39" fill="#F5F5F5" fill-opacity="0.5"/>
<rect x="554.523" y="354.5" width="224.004" height="39" stroke="#E1E1E1" stroke-width="3"/>
<rect x="554.523" y="354.5" width="224.004" height="39" stroke="black" stroke-width="3"/>
<path d="M654.5 115V110C654.5 106.685 655.817 103.505 658.161 101.161C660.505 98.817 663.685 97.5 667 97.5C670.315 97.5 673.495 98.817 675.839 101.161C678.183 103.505 679.5 106.685 679.5 110V115H687C687.663 115 688.299 115.263 688.768 115.732C689.237 116.201 689.5 116.837 689.5 117.5V147.5C689.5 148.163 689.237 148.799 688.768 149.268C688.299 149.737 687.663 150 687 150H647C646.337 150 645.701 149.737 645.232 149.268C644.763 148.799 644.5 148.163 644.5 147.5V117.5C644.5 116.837 644.763 116.201 645.232 115.732C645.701 115.263 646.337 115 647 115H654.5ZM654.5 120H649.5V145H684.5V120H679.5V125H674.5V120H659.5V125H654.5V120ZM659.5 115H674.5V110C674.5 108.011 673.71 106.103 672.303 104.697C670.897 103.29 668.989 102.5 667 102.5C665.011 102.5 663.103 103.29 661.697 104.697C660.29 106.103 659.5 108.011 659.5 110V115Z" fill="black"/>
<rect x="553.012" y="242" width="124.402" height="9.98851" rx="4.99425" fill="black"/>
<rect x="553.012" y="264.701" width="206.126" height="7.26437" rx="3.63218" fill="black"/>
<rect x="553.012" y="281.046" width="206.126" height="7.26437" rx="3.63218" fill="black"/>
<rect x="553.012" y="297.391" width="206.126" height="7.26437" rx="3.63218" fill="black"/>
<rect x="553.012" y="313.736" width="26.4026" height="7.26437" rx="3.63218" fill="black"/>
</svg>
