<svg width="821" height="424" viewBox="0 0 821 424" fill="none" xmlns="http://www.w3.org/2000/svg">
<g clip-path="url(#clip0_495_8682)">
<path opacity="0.1" d="M790 33H481V390H790V33Z" fill="#C4C4C4"/>
<path d="M820 1H1V423H820V1Z" fill="white" stroke="black" stroke-width="3"/>
<rect x="50" y="179" width="319" height="8" rx="4" fill="black"/>
<rect x="50" y="198.313" width="319" height="8" rx="4" fill="black"/>
<rect x="50" y="217.627" width="319" height="8" rx="4" fill="black"/>
<rect x="50" y="236.94" width="319" height="8" rx="4" fill="black"/>
<rect x="50" y="256.254" width="319" height="8" rx="4" fill="black"/>
<rect x="50" y="275.567" width="319" height="8" rx="4" fill="black"/>
<rect x="50" y="294.881" width="213.824" height="7.9194" rx="3.9597" fill="black"/>
<rect x="47" y="113.848" width="265" height="14.7222" rx="7.36111" fill="black"/>
<rect x="47" y="139.612" width="148.449" height="14.7222" rx="7.36111" fill="black"/>
<path d="M415 35H773V388H415V35Z" stroke="black" stroke-width="4"/>
<g clip-path="url(#clip1_495_8682)">
<path d="M625.378 220.125V230.75H636.003V237.833H625.378V248.458H618.294V237.833H607.669V230.75H618.294V220.125H625.378ZM625.406 177.625C627.347 177.625 628.919 179.201 628.919 181.142V213.042H621.836V184.708H565.169V234.288L600.586 198.875L611.211 209.5V219.519L600.586 208.894L575.182 234.292H600.586V241.375H561.599C560.667 241.374 559.774 241.003 559.115 240.344C558.456 239.684 558.086 238.79 558.086 237.858V181.142C558.092 180.212 558.465 179.322 559.122 178.663C559.779 178.005 560.669 177.632 561.599 177.625H625.406ZM579.336 191.792C581.215 191.792 583.016 192.538 584.345 193.866C585.673 195.195 586.419 196.996 586.419 198.875C586.419 200.754 585.673 202.555 584.345 203.884C583.016 205.212 581.215 205.958 579.336 205.958C577.457 205.958 575.656 205.212 574.327 203.884C572.999 202.555 572.253 200.754 572.253 198.875C572.253 196.996 572.999 195.195 574.327 193.866C575.656 192.538 577.457 191.792 579.336 191.792V191.792Z" fill="black"/>
</g>
</g>
<defs>
<clipPath id="clip0_495_8682">
<rect width="821" height="424" fill="white"/>
</clipPath>
<clipPath id="clip1_495_8682">
<rect width="85" height="85" fill="white" transform="translate(551 167)"/>
</clipPath>
</defs>
</svg>
