<svg width="821" height="424" viewBox="0 0 821 424" fill="none" xmlns="http://www.w3.org/2000/svg">
<g clip-path="url(#clip0_611_9313)">
<path d="M820 2H1V424H820V2Z" fill="white" stroke="black" stroke-width="3"/>
</g>
<rect x="60" y="138" width="701" height="8" rx="4" fill="black"/>
<rect x="60" y="157" width="701" height="8" rx="4" fill="black"/>
<rect x="60" y="176" width="701" height="8" rx="4" fill="black"/>
<rect x="60" y="195" width="701" height="8" rx="4" fill="black"/>
<rect x="60" y="214" width="701" height="8" rx="4" fill="black"/>
<rect x="60" y="233" width="701" height="8" rx="4" fill="black"/>
<rect x="60" y="252" width="701" height="8" rx="4" fill="black"/>
<rect x="60" y="271" width="701" height="8" rx="4" fill="black"/>
<rect x="60" y="290" width="701" height="8" rx="4" fill="black"/>
<rect x="60" y="309" width="701" height="8" rx="4" fill="black"/>
<rect x="60" y="328" width="701" height="8" rx="4" fill="black"/>
<rect x="60" y="347" width="213.824" height="7.9194" rx="3.9597" fill="black"/>
<rect x="60" y="69" width="318" height="17.6667" rx="8.83333" fill="black"/>
<rect x="60" y="99.9167" width="178.139" height="17.6667" rx="8.83333" fill="black"/>
<defs>
<clipPath id="clip0_611_9313">
<rect width="821" height="424" fill="white"/>
</clipPath>
</defs>
</svg>
