<svg width="829" height="432" viewBox="0 0 829 432" fill="none" xmlns="http://www.w3.org/2000/svg">
<g clip-path="url(#clip0_601_8634)" filter="url(#filter0_d_601_8634)">
<path d="M824 2H5V424H824V2Z" fill="white" stroke="black" stroke-width="3"/>
<rect x="64" y="76" width="701" height="8" rx="4" fill="black"/>
<rect x="64" y="95" width="701" height="8" rx="4" fill="black"/>
<rect x="64" y="114" width="701" height="8" rx="4" fill="black"/>
<rect x="64" y="133" width="701" height="8" rx="4" fill="black"/>
<rect x="64" y="152" width="701" height="8" rx="4" fill="black"/>
<rect x="64" y="171" width="701" height="8" rx="4" fill="black"/>
<rect x="64" y="190" width="701" height="8" rx="4" fill="black"/>
<rect x="64" y="209" width="701" height="8" rx="4" fill="black"/>
<rect x="64" y="228" width="701" height="8" rx="4" fill="black"/>
<rect x="64" y="247" width="701" height="8" rx="4" fill="black"/>
<rect x="64" y="266" width="701" height="8" rx="4" fill="black"/>
<rect x="64" y="285" width="701" height="8" rx="4" fill="black"/>
<rect x="64" y="304" width="701" height="8" rx="4" fill="black"/>
<rect x="64" y="323" width="701" height="8" rx="4" fill="black"/>
<rect x="64" y="342" width="213.824" height="7.9194" rx="3.9597" fill="black"/>
</g>
<defs>
<filter id="filter0_d_601_8634" x="0" y="0" width="829" height="432" filterUnits="userSpaceOnUse" color-interpolation-filters="sRGB">
<feFlood flood-opacity="0" result="BackgroundImageFix"/>
<feColorMatrix in="SourceAlpha" type="matrix" values="0 0 0 0 0 0 0 0 0 0 0 0 0 0 0 0 0 0 127 0" result="hardAlpha"/>
<feOffset dy="4"/>
<feGaussianBlur stdDeviation="2"/>
<feComposite in2="hardAlpha" operator="out"/>
<feColorMatrix type="matrix" values="0 0 0 0 0 0 0 0 0 0 0 0 0 0 0 0 0 0 0.25 0"/>
<feBlend mode="normal" in2="BackgroundImageFix" result="effect1_dropShadow_601_8634"/>
<feBlend mode="normal" in="SourceGraphic" in2="effect1_dropShadow_601_8634" result="shape"/>
</filter>
<clipPath id="clip0_601_8634">
<rect width="821" height="424" fill="white" transform="translate(4)"/>
</clipPath>
</defs>
</svg>
