<svg width="821" height="424" viewBox="0 0 821 424" fill="none" xmlns="http://www.w3.org/2000/svg">
<path opacity="0.1" d="M790 33H481V390H790V33Z" fill="black"/>
<path d="M820 1H1V423H820V1Z" fill="white" stroke="black" stroke-width="2"/>
<rect x="1.5" y="1.5" width="818" height="421" stroke="black" stroke-width="3"/>
<g clip-path="url(#clip0_617_8715)">
<path d="M346.137 185.626C345.505 183.287 344.271 181.156 342.559 179.443C340.846 177.73 338.714 176.497 336.376 175.865C327.818 173.531 293.371 173.531 293.371 173.531C293.371 173.531 258.925 173.601 250.366 175.935C248.028 176.567 245.896 177.801 244.184 179.514C242.471 181.227 241.237 183.358 240.605 185.696C238.017 200.904 236.998 224.075 240.676 238.674C241.308 241.013 242.542 243.144 244.254 244.857C245.967 246.57 248.099 247.803 250.437 248.435C258.996 250.77 293.442 250.77 293.442 250.77C293.442 250.77 327.888 250.77 336.447 248.435C338.785 247.803 340.917 246.57 342.629 244.857C344.342 243.144 345.576 241.013 346.208 238.674C348.938 223.467 349.78 200.288 346.137 185.626Z" fill="#FF0000"/>
<path d="M282.406 228.702L310.982 212.15L282.406 195.599V228.702Z" fill="white"/>
<path d="M398.195 243.768C396.002 242.282 394.446 240.019 393.527 236.907C392.607 233.794 392.183 229.692 392.183 224.529V217.526C392.183 212.363 392.678 208.119 393.739 205.007C394.8 201.894 396.427 199.56 398.69 198.146C401.348 196.601 404.389 195.841 407.461 195.953C410.997 195.953 413.897 196.66 416.019 198.146C418.321 199.839 419.99 202.254 420.758 205.007C421.749 208.119 422.244 212.292 422.244 217.455V224.458C422.244 229.621 421.749 233.724 420.758 236.836C419.768 239.948 418.212 242.212 416.019 243.697C413.827 245.182 410.856 245.89 407.178 245.89C403.358 245.96 400.388 245.182 398.195 243.768ZM410.432 236.199C411.068 234.643 411.351 232.026 411.351 228.49V213.424C411.351 209.958 411.068 207.412 410.432 205.855C409.795 204.299 408.734 203.451 407.249 203.451C405.763 203.451 404.773 204.229 404.136 205.855C403.5 207.482 403.217 209.958 403.217 213.424V228.49C403.217 232.026 403.5 234.643 404.066 236.199C404.254 236.891 404.671 237.499 405.249 237.922C405.828 238.346 406.532 238.562 407.249 238.533C408.734 238.533 409.795 237.755 410.432 236.199ZM565.475 224.67V227.146L565.758 234.148C565.838 235.358 566.228 236.527 566.89 237.543C567.227 237.914 567.644 238.203 568.11 238.387C568.576 238.571 569.079 238.645 569.578 238.604C571.205 238.604 572.336 237.968 572.902 236.694C573.468 235.421 573.822 233.299 573.893 230.399L583.3 230.965C583.365 231.529 583.389 232.096 583.371 232.663C583.371 237.119 582.168 240.443 579.693 242.636C577.217 244.829 573.822 245.96 569.366 245.96C563.99 245.96 560.241 244.263 558.119 240.938C555.997 237.614 554.866 232.38 554.866 225.377V216.819C555.106 204.794 557.221 195.988 569.649 195.953C573.397 195.953 576.227 196.66 578.207 198.004C580.188 199.348 581.602 201.47 582.451 204.37C583.3 207.27 583.654 211.231 583.654 216.324V224.599H565.475V224.67ZM566.89 204.299C566.225 205.288 565.835 206.435 565.758 207.624C565.546 209.18 565.475 214.697 565.475 214.697V218.163H573.397V214.697C573.397 218.163 573.327 209.251 573.115 207.624C572.902 205.997 572.549 204.865 571.983 204.229C571.656 203.888 571.259 203.624 570.819 203.453C570.379 203.282 569.907 203.208 569.436 203.238C568.961 203.221 568.487 203.307 568.047 203.49C567.608 203.673 567.213 203.949 566.89 204.299V204.299ZM371.741 223.751L359.363 179.048H370.185C370.185 179.048 375.243 201.47 376.975 212.009H377.258C379.225 200.819 384.19 179.048 384.19 179.048H395.012L382.493 223.68V245.112H371.812V223.751H371.741Z" fill="#262626"/>
<path d="M457.326 196.872V245.182H448.839L447.919 239.24H447.707C445.373 243.696 441.907 245.96 437.309 245.96C428.984 245.96 428.058 238.887 427.973 232.945V196.872H438.865V232.309C438.865 234.431 439.078 235.987 439.573 236.906C440.577 238.873 443.18 238.37 444.595 237.401C445.411 236.849 446.07 236.093 446.504 235.209V196.872H457.326Z" fill="#262626"/>
<path d="M486.894 187.819H476.072V245.182H465.463V187.819H454.641V179.048H486.824V187.819H486.894ZM549.067 204.582C548.431 201.541 547.37 199.348 545.885 197.933C544.399 196.519 542.419 195.882 539.802 195.882C537.811 195.876 535.865 196.468 534.214 197.58C532.503 198.687 531.113 200.223 530.182 202.036H530.111V176.572H519.643V245.111H528.626L529.758 240.514H529.97C530.835 242.133 532.133 243.48 533.719 244.404C535.431 245.342 537.354 245.829 539.306 245.819C542.985 245.819 545.672 244.121 547.441 240.726C549.209 237.331 550.058 232.026 550.058 224.882V217.243C550.143 213 549.811 208.76 549.067 204.582V204.582ZM539.094 224.316C539.137 227.081 538.996 229.846 538.67 232.592C538.387 234.572 537.892 235.987 537.185 236.836C536.854 237.246 536.433 237.574 535.954 237.795C535.476 238.016 534.953 238.123 534.426 238.109C533.541 238.126 532.67 237.897 531.908 237.447C531.146 236.997 530.524 236.345 530.111 235.563V208.119C530.415 206.87 531.08 205.739 532.021 204.865C533.577 203.118 536.265 203.097 537.467 204.865C538.104 205.714 538.458 207.199 538.741 209.25C539.024 211.302 539.094 214.202 539.094 218.021V224.316Z" fill="#262626"/>
<path d="M513.135 196.872V245.182H504.647L503.728 239.24H503.515C501.181 243.696 497.715 245.96 493.118 245.96C484.793 245.96 483.866 238.887 483.781 232.945V196.872H494.674V232.309C494.674 234.431 494.886 235.987 495.381 236.906C496.386 238.873 498.989 238.37 500.403 237.401C501.22 236.849 501.878 236.093 502.313 235.209V196.872H513.135Z" fill="#262626"/>
</g>
<defs>
<clipPath id="clip0_617_8715">
<rect width="348" height="77.8049" fill="white" transform="translate(237 173.248)"/>
</clipPath>
</defs>
</svg>
