<svg width="904" height="497" viewBox="0 0 904 497" fill="none" xmlns="http://www.w3.org/2000/svg">
<rect opacity="0.1" y="0.374268" width="904" height="496.246" fill="#C4C4C4"/>
<g clip-path="url(#clip0_42_20)">
<path d="M502.608 204.974H403.127V292.02L460.901 234.234C462.067 233.069 463.648 232.414 465.297 232.414C466.945 232.414 468.526 233.069 469.692 234.234L502.608 267.212V204.974ZM390.692 198.713C390.704 197.081 391.357 195.518 392.511 194.363C393.665 193.207 395.227 192.552 396.86 192.539H508.875C512.282 192.539 515.043 195.306 515.043 198.713V298.281C515.032 299.914 514.378 301.477 513.224 302.632C512.07 303.787 510.508 304.442 508.875 304.455H396.86C395.224 304.453 393.655 303.802 392.499 302.644C391.342 301.487 390.692 299.917 390.692 298.281V198.713ZM427.998 242.28C424.7 242.28 421.537 240.97 419.205 238.638C416.873 236.306 415.563 233.143 415.563 229.845C415.563 226.547 416.873 223.384 419.205 221.052C421.537 218.72 424.7 217.41 427.998 217.41C431.296 217.41 434.458 218.72 436.79 221.052C439.123 223.384 440.433 226.547 440.433 229.845C440.433 233.143 439.123 236.306 436.79 238.638C434.458 240.97 431.296 242.28 427.998 242.28Z" fill="#C4C4C4" fill-opacity="0.6"/>
</g>
<defs>
<clipPath id="clip0_42_20">
<rect width="149.221" height="149.221" fill="white" transform="translate(378.257 173.887)"/>
</clipPath>
</defs>
</svg>
