<svg width="904" height="565" viewBox="0 0 904 565" fill="none" xmlns="http://www.w3.org/2000/svg">
<rect opacity="0.1" width="904" height="565" fill="#C4C4C4"/>
<g clip-path="url(#clip0_42_14)">
<path d="M498.547 241.887H406.109V322.77L459.793 269.075C460.876 267.992 462.345 267.383 463.877 267.383C465.409 267.383 466.878 267.992 467.962 269.075L498.547 299.718V241.887ZM394.555 236.069C394.565 234.552 395.172 233.099 396.245 232.026C397.317 230.953 398.769 230.344 400.286 230.332H504.371C507.537 230.332 510.102 232.903 510.102 236.069V328.587C510.091 330.105 509.484 331.557 508.412 332.63C507.339 333.704 505.888 334.312 504.371 334.324H400.286C398.765 334.323 397.308 333.718 396.233 332.642C395.158 331.566 394.555 330.108 394.555 328.587V236.069ZM429.219 276.551C426.154 276.551 423.215 275.333 421.048 273.167C418.881 271 417.664 268.061 417.664 264.996C417.664 261.932 418.881 258.993 421.048 256.826C423.215 254.659 426.154 253.441 429.219 253.441C432.283 253.441 435.222 254.659 437.389 256.826C439.556 258.993 440.773 261.932 440.773 264.996C440.773 268.061 439.556 271 437.389 273.167C435.222 275.333 432.283 276.551 429.219 276.551Z" fill="#C4C4C4" fill-opacity="0.6"/>
</g>
<defs>
<clipPath id="clip0_42_14">
<rect width="138.656" height="138.656" fill="white" transform="translate(383 213)"/>
</clipPath>
</defs>
</svg>
