<svg width="18" height="18" viewBox="0 0 18 18" fill="none" xmlns="http://www.w3.org/2000/svg">
    <circle cx="9" cy="9" r="9" fill="white"/>
    <path d="M10.8953 9.47371L14.194 11.3978L12.7857 11.8004L13.7923 13.5441L12.9719 14.0178L11.9653 12.2746L10.9123 13.293L10.8953 9.47371ZM9.94788 6.15792H10.8953V7.10529H13.2637C13.3893 7.10529 13.5098 7.15519 13.5986 7.24403C13.6875 7.33286 13.7374 7.45334 13.7374 7.57897V9.47371H12.79V8.05266H8.05315V12.7895H9.94788V13.7369H7.57946C7.45383 13.7369 7.33335 13.687 7.24452 13.5981C7.15568 13.5093 7.10578 13.3888 7.10578 13.2632V10.8948H6.15841V9.94739H7.10578V7.57897C7.10578 7.45334 7.15568 7.33286 7.24452 7.24403C7.33335 7.15519 7.45383 7.10529 7.57946 7.10529H9.94788V6.15792ZM5.21104 9.94739V10.8948H4.26367V9.94739H5.21104ZM5.21104 8.05266V9.00003H4.26367V8.05266H5.21104ZM5.21104 6.15792V7.10529H4.26367V6.15792H5.21104ZM5.21104 4.26318V5.21055H4.26367V4.26318H5.21104ZM7.10578 4.26318V5.21055H6.15841V4.26318H7.10578ZM9.00051 4.26318V5.21055H8.05315V4.26318H9.00051ZM10.8953 4.26318V5.21055H9.94788V4.26318H10.8953Z" fill="black"/>
</svg>
